<svg width="45" height="45" viewBox="0 0 45 45" fill="none" xmlns="http://www.w3.org/2000/svg">
<g filter="url(#filter0_i_4172_22)">
<rect width="45" height="45" rx="22.5" fill="white"/>
</g>
<path fill-rule="evenodd" clip-rule="evenodd" d="M31.1427 28.1447C30.81 28.9133 30.4161 29.6208 29.9599 30.2713C29.3379 31.158 28.8287 31.7718 28.4362 32.1127C27.8278 32.6722 27.176 32.9587 26.478 32.975C25.9769 32.975 25.3726 32.8324 24.6692 32.5432C23.9634 32.2553 23.3148 32.1127 22.7218 32.1127C22.0998 32.1127 21.4328 32.2553 20.7193 32.5432C20.0048 32.8324 19.4291 32.9832 18.989 32.9981C18.3196 33.0266 17.6525 32.7319 16.9865 32.1127C16.5614 31.742 16.0298 31.1064 15.3929 30.2061C14.7096 29.2446 14.1478 28.1297 13.7076 26.8586C13.2363 25.4857 13 24.1563 13 22.8692C13 21.3948 13.3186 20.1232 13.9567 19.0576C14.4582 18.2016 15.1254 17.5264 15.9604 17.0308C16.7954 16.5351 17.6977 16.2825 18.6693 16.2664C19.201 16.2664 19.8981 16.4308 20.7645 16.754C21.6285 17.0783 22.1832 17.2428 22.4264 17.2428C22.6083 17.2428 23.2245 17.0505 24.2692 16.6671C25.2572 16.3116 26.091 16.1644 26.774 16.2224C28.625 16.3718 30.0155 17.1014 30.9403 18.4159C29.2849 19.4189 28.4661 20.8238 28.4824 22.6259C28.4973 24.0297 29.0066 25.1978 30.0074 26.1253C30.461 26.5558 30.9675 26.8885 31.531 27.1248C31.4088 27.4792 31.2798 27.8187 31.1427 28.1447ZM26.8976 11.4401C26.8976 12.5404 26.4957 13.5677 25.6945 14.5185C24.7276 15.6489 23.5581 16.3021 22.2899 16.199C22.2737 16.067 22.2643 15.9281 22.2643 15.7821C22.2643 14.7259 22.7241 13.5955 23.5407 12.6713C23.9484 12.2033 24.4668 11.8142 25.0956 11.5038C25.723 11.198 26.3164 11.029 26.8745 11C26.8908 11.1471 26.8976 11.2942 26.8976 11.4401V11.4401Z" fill="black"/>
<defs>
<filter id="filter0_i_4172_22" x="0" y="0" width="45" height="49" filterUnits="userSpaceOnUse" color-interpolation-filters="sRGB">
<feFlood flood-opacity="0" result="BackgroundImageFix"/>
<feBlend mode="normal" in="SourceGraphic" in2="BackgroundImageFix" result="shape"/>
<feColorMatrix in="SourceAlpha" type="matrix" values="0 0 0 0 0 0 0 0 0 0 0 0 0 0 0 0 0 0 127 0" result="hardAlpha"/>
<feMorphology radius="629" operator="erode" in="SourceAlpha" result="effect1_innerShadow_4172_22"/>
<feOffset dy="4"/>
<feGaussianBlur stdDeviation="2"/>
<feComposite in2="hardAlpha" operator="arithmetic" k2="-1" k3="1"/>
<feColorMatrix type="matrix" values="0 0 0 0 1 0 0 0 0 1 0 0 0 0 1 0 0 0 0.25 0"/>
<feBlend mode="normal" in2="shape" result="effect1_innerShadow_4172_22"/>
</filter>
</defs>
</svg>
