<svg width="24" height="26" viewBox="0 0 24 26" fill="none" xmlns="http://www.w3.org/2000/svg">
<g clip-path="url(#clip0_1849_5510)">
<path d="M-0.000329971 13.904C-0.00364494 13.2366 0.152199 12.6129 0.504505 12.0459C0.95463 11.3226 1.55148 10.8009 2.45919 10.7606C2.61255 10.754 2.58768 10.6619 2.58768 10.5722C2.58768 10.132 2.58685 9.69254 2.58768 9.25231C2.59265 7.94396 2.83305 6.68251 3.3727 5.48525C5.58768 0.578516 11.3788 -1.43338 16.1685 1.09363C18.7432 2.45217 20.3067 4.61219 20.8977 7.45765C21.1025 8.44508 21.0593 9.44404 21.0544 10.4413C21.0527 10.6866 21.0967 10.7754 21.3686 10.7639C22.8176 10.7014 23.8969 11.9225 23.9524 13.1848C24.0204 14.7054 24.0096 16.2302 23.9574 17.7517C23.9159 18.9744 22.8549 20.0063 21.6264 20.0606C20.8098 20.096 19.9908 20.0771 19.1726 20.0771C18.691 20.0771 18.4747 19.8549 18.4747 19.3743C18.4747 16.8111 18.4747 14.2479 18.4747 11.6839C18.4747 11.5736 18.4722 11.4625 18.4879 11.3547C18.5435 10.9606 18.7781 10.7598 19.1743 10.7582C19.7645 10.7549 19.7612 10.7549 19.7653 10.1698C19.772 9.19718 19.7761 8.22703 19.5341 7.27168C18.5128 3.24048 14.5653 0.664916 10.4296 1.43512C7.2572 2.02511 5.19641 3.93909 4.20497 6.98533C3.87173 8.00897 3.87919 9.06717 3.89246 10.1245C3.89494 10.3261 3.80542 10.5845 3.92893 10.7137C4.0541 10.8446 4.31771 10.7573 4.51832 10.7524C4.79353 10.745 4.97093 10.8676 5.08533 11.1013C5.16159 11.256 5.18563 11.4214 5.18563 11.5934C5.1848 14.1994 5.18563 16.8045 5.18397 19.4106C5.18397 19.831 4.94606 20.068 4.52164 20.0762C4.3144 20.0804 4.10633 20.0762 3.87173 20.0762C3.90738 20.1429 3.91898 20.1742 3.93888 20.1997C4.93114 21.443 6.221 22.1128 7.82006 22.2001C7.99331 22.2091 8.04802 22.149 8.09196 21.9976C8.5827 20.2943 10.2671 19.3307 11.993 19.7594C13.4313 20.1174 14.4832 21.5377 14.3837 22.9875C14.2801 24.4934 13.0823 25.7869 11.6374 25.954C11.5562 26.0033 11.455 25.9383 11.3755 25.9992H10.8126C10.7993 25.9605 10.767 25.9589 10.7322 25.9548C9.44399 25.8042 8.37961 24.8892 8.08035 23.6565C8.03891 23.4862 7.97176 23.4566 7.81343 23.4516C6.82117 23.4204 5.88444 23.1735 5.00326 22.7135C3.885 22.1301 3.04775 21.262 2.39701 20.2038C2.31412 20.0688 2.21879 20.0145 2.05714 19.9915C0.70594 19.8006 0.00132751 18.9876 -0.000329971 17.634C-0.00198746 16.3906 0.00381279 15.1465 -0.00198936 13.9031L-0.000329971 13.904ZM19.767 12.7552C19.762 13.6423 19.7653 14.5302 19.7653 15.4172C19.7653 16.4738 19.7687 17.5303 19.762 18.586C19.7612 18.7473 19.7968 18.8008 19.9684 18.7967C20.4617 18.7844 20.9557 18.7992 21.4498 18.7901C22.1362 18.7769 22.6766 18.238 22.68 17.5575C22.6858 16.18 22.6874 14.8025 22.6783 13.425C22.6733 12.5775 22.1138 12.0385 21.2674 12.0385C21.0038 12.0385 20.7394 12.0369 20.4758 12.0385C20.2478 12.041 19.9386 11.9612 19.8126 12.0764C19.665 12.2105 19.7687 12.5207 19.7678 12.7544L19.767 12.7552ZM11.1301 24.7155C12.1646 24.7287 13.0748 23.8425 13.0897 22.8082C13.1047 21.787 12.2384 20.9246 11.1931 20.9197C10.1088 20.9147 9.28151 21.7483 9.27157 22.8567C9.26245 23.8655 10.0997 24.7024 11.1301 24.7155ZM1.30279 17.8397C1.30611 18.3746 1.67002 18.7251 2.30749 18.7761C2.78994 18.8148 3.27737 18.7868 3.76231 18.7951C3.94219 18.7983 3.88914 18.6716 3.88914 18.5844C3.89163 17.5616 3.8908 16.5396 3.8908 15.5168V15.39C3.8908 14.3508 3.88582 13.3115 3.89577 12.2714C3.89743 12.083 3.85267 12.0245 3.65869 12.0344C3.31053 12.0517 2.96071 12.0459 2.61172 12.0369C2.30914 12.0295 2.0646 12.143 1.864 12.3562C1.51335 12.7281 1.31274 13.1774 1.30694 13.681C1.29119 15.0667 1.29533 16.4524 1.30362 17.8389L1.30279 17.8397Z" fill="white"/>
</g>
<defs>
<clipPath id="clip0_1849_5510">
<rect width="24" height="26" fill="white" transform="matrix(-1 0 0 1 24 0)"/>
</clipPath>
</defs>
</svg>
