<svg width="23" height="28" viewBox="0 0 23 28" fill="none" xmlns="http://www.w3.org/2000/svg">
<path d="M22.9073 5.06935C22.5927 3.96642 21.7412 3.28822 20.6359 3.28274C19.6223 3.2752 18.6081 3.28274 17.5938 3.27863C17.358 3.27863 17.0454 3.38687 16.9095 3.23205C16.7929 3.09983 16.8743 2.76759 16.8698 2.52371C16.8538 1.72563 16.5847 1.05908 15.9984 0.544609C15.6531 0.241818 15.2456 0.106867 14.824 0H8.17591C8.14749 0.0174561 8.11714 0.0310322 8.08557 0.0404154C7.33977 0.169204 6.79068 0.593251 6.4197 1.29337C6.13138 1.83319 6.11729 2.42164 6.13715 3.01558C6.14355 3.22109 6.10511 3.2896 5.89496 3.2896C4.71006 3.27727 3.52537 3.27612 2.3409 3.28617C1.20555 3.29781 0.263052 4.10822 0.0496937 5.22759C-0.173917 6.40313 0.370054 7.52113 1.42083 8.00477C1.55538 8.06643 1.58549 8.14863 1.59639 8.28907C1.79159 10.8306 1.98979 13.3719 2.19097 15.913C2.42035 18.8815 2.64887 21.85 2.87654 24.8186C2.91434 25.2981 2.90793 25.7872 3.04953 26.2503C3.38142 27.3382 4.23742 27.9931 5.32792 27.9979C6.49595 28.0027 7.66334 27.9979 8.83072 27.9979C11.7712 27.9979 14.7114 27.9979 17.6515 27.9979C18.7266 27.9979 19.5576 27.3985 19.9222 26.3538C20.1144 25.7996 20.0932 25.2063 20.1407 24.6281C20.2746 22.984 20.3937 21.3399 20.5212 19.6958C20.666 17.8265 20.8123 15.957 20.9601 14.0873C21.1107 12.163 21.2626 10.2394 21.4048 8.31442C21.4183 8.13288 21.4759 8.05136 21.631 7.98148C22.1398 7.7467 22.5506 7.3208 22.7857 6.78425C23.0209 6.2477 23.0641 5.63765 22.9073 5.06935ZM7.65821 3.06832C7.67615 2.86966 7.65821 2.66758 7.66398 2.46823C7.67807 1.99828 7.98433 1.64617 8.41938 1.64617C10.4697 1.63932 12.521 1.63932 14.5735 1.64617C15.0085 1.64617 15.3186 1.9976 15.3302 2.46823C15.3366 2.72991 15.4128 3.0649 15.293 3.2341C15.1732 3.40331 14.849 3.28001 14.6138 3.28138C13.5752 3.28686 12.5373 3.28138 11.4987 3.28138C10.2903 3.28138 9.08124 3.28138 7.87285 3.28138C7.71972 3.2848 7.64347 3.26013 7.66077 3.06832H7.65821ZM19.853 8.48019C19.6274 11.2375 19.4231 13.9976 19.2123 16.7562C18.9919 19.6248 18.7695 22.4926 18.5453 25.3598C18.487 26.1085 18.2358 26.3544 17.5406 26.3544H5.42339C4.78267 26.3544 4.51806 26.1119 4.46231 25.431C4.32969 23.8074 4.21115 22.1818 4.08493 20.5576C3.93885 18.6705 3.79191 16.783 3.64412 14.895C3.51597 13.2705 3.39061 11.646 3.26802 10.0215C3.22765 9.49475 3.20394 8.96589 3.13987 8.44594C3.11168 8.21234 3.18408 8.2007 3.35964 8.20138C6.06987 8.2064 8.77989 8.20755 11.4897 8.20481C14.191 8.20481 16.8922 8.20344 19.5935 8.2007C19.7947 8.19796 19.878 8.20412 19.8587 8.48019H19.853ZM20.7244 6.56206C20.6391 6.56686 20.5539 6.56206 20.4681 6.56206H2.50428C2.4107 6.56515 2.31703 6.56309 2.22365 6.5559C2.03551 6.53621 1.86074 6.44311 1.73274 6.29437C1.60474 6.14564 1.53247 5.95169 1.52975 5.7496C1.52908 5.54294 1.60123 5.34359 1.73184 5.19126C1.86245 5.03892 2.04193 4.94476 2.23454 4.92754C2.31911 4.91932 2.40497 4.92275 2.49083 4.92275H20.5084C20.5853 4.92275 20.6622 4.92275 20.7384 4.92275C20.936 4.93279 21.1223 5.02381 21.2587 5.17691C21.395 5.33 21.471 5.53338 21.4708 5.7448C21.4691 5.95697 21.3907 6.16021 21.2521 6.31202C21.1134 6.46382 20.9253 6.55244 20.7269 6.55933L20.7244 6.56206Z" fill="#FFF8F8"/>
<path d="M8.99883 23.0916C9.02397 23.6126 8.64343 23.9757 8.04831 23.9989C7.4532 24.0221 7.03494 23.6829 6.99303 23.1651C6.78013 20.5218 6.56471 17.878 6.34678 15.2337C6.22944 13.788 6.1079 12.343 6.00228 10.8966C5.95618 10.266 6.61501 9.85267 7.32663 10.0493C7.74573 10.1654 7.9712 10.4079 7.99719 10.7464C8.16091 12.7479 8.32129 14.7497 8.47831 16.7517C8.65042 18.8663 8.82392 20.9796 8.99883 23.0916Z" fill="#FFF8F8"/>
<path d="M14.0011 23.1392C14.1736 21.0159 14.3436 18.9539 14.5094 16.8919C14.6539 15.104 14.796 13.3157 14.9355 11.527C14.9556 11.2793 14.9791 11.031 14.9983 10.7827C15.0368 10.308 15.4781 9.97969 16.0516 10.001C16.6101 10.0223 17.0279 10.3699 16.9985 10.8324C16.9391 11.7656 16.8562 12.6976 16.78 13.6303C16.6567 15.1447 16.5327 16.6591 16.4083 18.1735C16.271 19.8678 16.1395 21.5622 15.9997 23.2559C15.9953 23.3591 15.9639 23.4605 15.9076 23.5542C15.8512 23.6479 15.7709 23.7318 15.6716 23.8011C15.5722 23.8704 15.4557 23.9235 15.3292 23.9574C15.2026 23.9913 15.0684 24.0052 14.9347 23.9983C14.3436 23.968 13.9769 23.6055 14.0011 23.1392Z" fill="#FFF8F8"/>
<path d="M11.9967 17.027C11.9967 19.0677 11.9967 21.1081 11.9967 23.1484C11.9967 23.7611 11.664 24.1507 11.3238 23.9443C11.2347 23.8946 11.157 23.8055 11.1002 23.688C11.0434 23.5705 11.0101 23.4297 11.0044 23.2832C11.0005 23.1973 10.9995 23.1112 11.0015 23.0252C11.0015 19.004 11.0015 14.9837 11.0015 10.9643C10.9979 10.853 11.0008 10.7414 11.0102 10.6309C11.0333 10.4439 11.0999 10.2766 11.1972 10.1607C11.2946 10.0448 11.416 9.98834 11.5384 10.002C11.6613 10.0158 11.7764 10.1005 11.861 10.2393C11.9457 10.3781 11.9938 10.5611 11.9959 10.7521C12.0034 11.3094 11.9984 11.8666 11.9984 12.4239C11.9975 13.958 11.997 15.4924 11.9967 17.027Z" fill="#FFF8F8"/>
</svg>
