<svg width="31" height="31" viewBox="0 0 31 31" fill="none" xmlns="http://www.w3.org/2000/svg">
<g filter="url(#filter0_b_1849_7234)">
<rect width="31" height="31" rx="15.5" fill="white" fill-opacity="0.2"/>
</g>
<g clip-path="url(#clip0_1849_7234)">
<path d="M7 14.7711C7.06902 14.6804 7.06237 14.5661 7.09106 14.4637C7.35635 13.5213 8.22789 12.8067 9.20462 12.788C10.3489 12.766 11.4916 12.7793 12.6384 12.7805C12.8538 12.7805 13.0018 12.9203 13.0047 13.107C13.008 13.3042 12.8521 13.4422 12.6139 13.4427C11.5469 13.4427 10.4796 13.4427 9.41211 13.4427C8.38049 13.4427 7.66571 14.1601 7.66571 15.1937C7.66571 16.8366 7.66571 18.4793 7.66571 20.1219C7.66571 21.1559 8.38132 21.8734 9.41211 21.8742C10.0645 21.8742 10.7169 21.8776 11.3693 21.8721C11.5494 21.8721 11.672 21.9308 11.7947 22.071C12.0305 22.3396 12.2974 22.5813 12.5768 22.8612C12.5768 22.6532 12.5768 22.4765 12.5768 22.2976C12.5768 21.9961 12.6978 21.8763 13.001 21.8763C14.1345 21.8763 15.2681 21.8763 16.4019 21.8763C17.4339 21.8763 18.1508 21.1588 18.1516 20.1265C18.1516 19.4299 18.1516 18.7328 18.1516 18.0357C18.1498 17.9696 18.1562 17.9035 18.1707 17.839C18.188 17.7685 18.2289 17.706 18.2867 17.662C18.3444 17.6181 18.4155 17.5952 18.488 17.5973C18.6394 17.6073 18.7491 17.6834 18.7936 17.8335C18.8079 17.8867 18.8148 17.9416 18.814 17.9966C18.814 18.7324 18.8194 19.4681 18.814 20.2039C18.8048 21.324 18.0768 22.2278 16.9844 22.484C16.7955 22.5252 16.6023 22.5443 16.4089 22.5409C15.4023 22.5409 14.396 22.5409 13.3893 22.5372C13.2646 22.5372 13.2317 22.5651 13.2363 22.6898C13.2467 22.9773 13.2301 23.2655 13.2426 23.5525C13.2509 23.7559 13.1843 23.9035 13.0068 24.0008H12.8076C12.6866 23.9625 12.5778 23.8931 12.492 23.7995C12.1781 23.4813 11.8488 23.1756 11.5485 22.8458C11.3643 22.6429 11.1656 22.5692 10.8961 22.5792C10.3889 22.5979 9.88032 22.5846 9.3722 22.5846C8.32311 22.5846 7.4445 21.9674 7.08524 20.9829C7.03368 20.8415 7.04033 20.6918 7.00208 20.5487L7 14.7711Z" fill="white"/>
<path d="M12.6236 17.9578H9.25799C9.20836 17.9596 9.15866 17.9586 9.10913 17.9549C8.92659 17.9341 8.79561 17.7973 8.79395 17.6288C8.79451 17.5447 8.82661 17.4638 8.88389 17.4022C8.94117 17.3406 9.01946 17.3028 9.10331 17.2961C9.1528 17.2917 9.20252 17.2905 9.25217 17.2924H16.0332C16.2985 17.2924 16.4602 17.423 16.4561 17.6297C16.4519 17.8364 16.2952 17.9558 16.0403 17.9558C14.901 17.9577 13.7621 17.9584 12.6236 17.9578Z" fill="white"/>
<path d="M11.9613 19.8187H9.25855C9.20306 19.8208 9.14749 19.8192 9.09223 19.8137C9.01178 19.8045 8.93737 19.7665 8.88273 19.7067C8.82809 19.647 8.79691 19.5694 8.79492 19.4885C8.7964 19.4075 8.82703 19.3298 8.88119 19.2696C8.93534 19.2094 9.00939 19.1707 9.08973 19.1607C9.13361 19.1556 9.17781 19.1538 9.22196 19.1553H14.7306C14.9522 19.1553 15.0836 19.2302 15.1319 19.3799C15.2042 19.6049 15.0537 19.8096 14.7992 19.8171C14.556 19.8245 14.3127 19.8191 14.0691 19.8191L11.9613 19.8187Z" fill="white"/>
<path d="M11.5481 15.4349C12.3327 15.4349 13.1174 15.4349 13.902 15.4349C14.1956 15.4349 14.3727 15.6574 14.2696 15.8924C14.2043 16.0418 14.0791 16.0983 13.9228 16.0983H9.20002C8.95053 16.0954 8.79044 15.9623 8.79502 15.7602C8.79959 15.558 8.95386 15.4353 9.19586 15.4349C9.9798 15.4338 10.7639 15.4338 11.5481 15.4349Z" fill="white"/>
<path d="M16.4564 19.4795C16.4544 19.5659 16.42 19.6484 16.36 19.7106C16.3 19.7728 16.2187 19.8101 16.1324 19.8151C16.046 19.8133 15.9634 19.779 15.9011 19.7189C15.8389 19.6588 15.8017 19.5775 15.7969 19.4911C15.7986 19.4046 15.833 19.3219 15.893 19.2596C15.9531 19.1973 16.0344 19.1599 16.1208 19.155C16.2073 19.1568 16.29 19.1912 16.3522 19.2514C16.4145 19.3115 16.4517 19.393 16.4564 19.4795Z" fill="white"/>
<path d="M23.6396 10.0408C23.1352 8.77346 22.2292 7.88381 20.9701 7.35767C20.2578 7.05987 19.5106 6.97835 18.7189 7.00746C17.4931 6.9459 16.3459 7.24994 15.3546 8.03811C14.2918 8.88285 13.6781 9.98796 13.535 11.3397C13.4169 12.4627 13.6706 13.5025 14.286 14.4491C14.9346 15.4473 15.8328 16.1324 16.9767 16.4518C18.064 16.755 19.173 16.7246 20.2774 16.5204C20.313 16.5099 20.3508 16.51 20.3864 16.5205C20.422 16.5311 20.4537 16.5517 20.4778 16.5799C20.8433 16.9492 21.2125 17.3153 21.5797 17.6833C21.6974 17.8019 21.8292 17.8718 21.9955 17.8023C22.1618 17.7328 22.2034 17.5906 22.2009 17.4226C22.1976 16.864 22.2034 16.305 22.1963 15.7464C22.1923 15.6929 22.2016 15.6392 22.2233 15.5901C22.2451 15.541 22.2787 15.4981 22.3211 15.4652C22.8137 15.0514 23.2125 14.5374 23.4912 13.9575C24.1149 12.6756 24.1644 11.3601 23.6396 10.0408ZM23.2924 12.3342C23.1677 13.3665 22.7232 14.2474 21.9265 14.9208C21.6354 15.1662 21.4899 15.4128 21.5298 15.7942C21.5602 16.0816 21.5356 16.3765 21.5356 16.7018C21.2774 16.4431 21.0391 16.2151 20.8138 15.9756C20.6649 15.8175 20.5077 15.7676 20.2944 15.8304C19.5876 16.0384 18.862 16.0034 18.1385 15.9768C17.2494 15.944 16.4473 15.6528 15.7617 15.0913C14.5334 14.0844 13.9932 12.7788 14.2298 11.202C14.4519 9.72218 15.2889 8.67406 16.6357 8.03312C17.0095 7.85275 17.4128 7.7413 17.8262 7.70413C18.4985 7.64632 19.1738 7.62386 19.8437 7.73158C20.8982 7.90086 21.7606 8.41411 22.4217 9.24762C23.139 10.1506 23.4292 11.1896 23.2924 12.3342Z" fill="white"/>
<path d="M18.5123 12.4361C18.5123 12.3367 18.5123 12.2373 18.5123 12.1375C18.5152 11.7631 18.6603 11.561 19.0154 11.4549C19.2591 11.3822 19.4395 11.2416 19.5289 11.0028C19.6379 10.7117 19.5855 10.4434 19.3701 10.2209C19.1547 9.99839 18.8956 9.936 18.61 10.0337C18.3243 10.1315 18.1526 10.3332 18.111 10.6377C18.1044 10.6872 18.096 10.7362 18.0865 10.7849C18.0491 10.9704 17.9148 11.0731 17.7326 11.0573C17.6518 11.0515 17.5764 11.0145 17.5221 10.9543C17.4678 10.8941 17.439 10.8152 17.4416 10.7342C17.454 10.1876 17.691 9.75591 18.1767 9.50469C19.1713 8.98895 20.2711 9.69768 20.2391 10.8186C20.2242 11.3501 19.8412 11.8738 19.3243 12.0447C19.2021 12.0863 19.1622 12.1383 19.1705 12.2639C19.1826 12.4403 19.1755 12.6179 19.1734 12.7951C19.1701 13.0446 19.0354 13.2068 18.8341 13.2031C18.6329 13.1993 18.5127 13.0454 18.5102 12.8013C18.5114 12.6798 18.5123 12.558 18.5123 12.4361Z" fill="white"/>
<path d="M19.1733 14.1917C19.1685 14.2803 19.1289 14.3634 19.0632 14.4229C18.9975 14.4825 18.911 14.5137 18.8224 14.5099C18.7798 14.5078 18.7381 14.4972 18.6995 14.4789C18.661 14.4606 18.6265 14.4349 18.5979 14.4032C18.5694 14.3715 18.5474 14.3345 18.5332 14.2943C18.519 14.2541 18.5128 14.2114 18.5151 14.1688C18.5196 14.0829 18.5575 14.0022 18.6206 13.9438C18.6838 13.8854 18.7672 13.8539 18.8532 13.8561C18.9389 13.8617 19.0194 13.8993 19.0787 13.9615C19.138 14.0236 19.1718 14.1058 19.1733 14.1917Z" fill="white"/>
</g>
<defs>
<filter id="filter0_b_1849_7234" x="-4" y="-4" width="39" height="39" filterUnits="userSpaceOnUse" color-interpolation-filters="sRGB">
<feFlood flood-opacity="0" result="BackgroundImageFix"/>
<feGaussianBlur in="BackgroundImageFix" stdDeviation="2"/>
<feComposite in2="SourceAlpha" operator="in" result="effect1_backgroundBlur_1849_7234"/>
<feBlend mode="normal" in="SourceGraphic" in2="effect1_backgroundBlur_1849_7234" result="shape"/>
</filter>
<clipPath id="clip0_1849_7234">
<rect width="17" height="17" fill="white" transform="translate(7 7)"/>
</clipPath>
</defs>
</svg>
