<svg width="26" height="26" viewBox="0 0 26 26" fill="none" xmlns="http://www.w3.org/2000/svg">
<g clip-path="url(#clip0_1849_7223)">
<g clip-path="url(#clip1_1849_7223)">
<path d="M23.9829 11.7142C23.9499 10.4559 23.6387 9.26199 23.1599 8.10932C22.5387 6.60594 21.6046 5.25176 20.4195 4.13667C19.4298 3.19953 18.3056 2.48231 17.0698 1.9232C15.2217 1.08733 13.2719 0.892722 11.2805 1.04877C9.64632 1.17743 8.12763 1.71593 6.70882 2.53089C5.20603 3.39355 3.96844 4.5471 2.98486 5.96916C2.16091 7.15796 1.56897 8.49149 1.24015 9.89971C1.10991 10.4529 1.05127 11.0135 1 11.5764L1 13.4608C1.04125 13.6724 1.02446 13.8897 1.05245 14.1017C1.17863 15.0586 1.43017 15.9947 1.8006 16.8861C2.53166 18.6526 3.62752 20.1542 5.09642 21.3775C6.66992 22.6859 8.4661 23.5214 10.4849 23.8839C10.8385 23.9472 11.1954 23.9454 11.5478 23.9996L13.3432 23.9996C13.5928 23.959 13.8471 23.9775 14.0966 23.9449C15.577 23.7511 16.9575 23.258 18.249 22.5196C19.7244 21.6757 20.9493 20.551 21.9279 19.1631C22.9051 17.7867 23.5651 16.2111 23.8603 14.5495C24.0298 13.6091 24.0079 12.6635 23.9829 11.7142ZM12.4869 22.5637C6.93954 22.5611 2.43884 18.0632 2.43649 12.5207C2.43442 6.97108 6.95309 2.46141 12.5043 2.47289C18.0554 2.48437 22.5505 6.98699 22.5438 12.5271C22.537 18.0673 18.0328 22.5673 12.4869 22.5646L12.4869 22.5637Z" fill="white"/>
<path d="M13.2081 15.0952C14.1964 14.1071 15.1479 13.1576 16.0958 12.2051C16.2605 12.0396 16.4415 11.923 16.6852 11.9298C16.973 11.9384 17.1861 12.0711 17.3143 12.3246C17.4424 12.5781 17.4177 12.8319 17.2518 13.0645C17.1967 13.1352 17.1359 13.2013 17.07 13.2621C15.7957 14.5363 14.521 15.8102 13.2458 17.0837C12.7859 17.543 12.1977 17.5465 11.7431 17.0919C10.4522 15.8033 9.16103 14.5144 7.86942 13.225C7.6443 13.0009 7.52909 12.7507 7.62014 12.4389C7.76953 11.9281 8.39274 11.7582 8.79172 12.123C9.06163 12.37 9.31357 12.637 9.57287 12.8961C10.2921 13.6148 11.0111 14.3341 11.7401 15.0634C11.7935 14.9847 11.7696 14.9032 11.7696 14.8278C11.771 12.4359 11.7715 10.044 11.7714 7.65214C11.7714 7.52584 11.766 7.40012 11.8088 7.27558C11.919 6.95524 12.2178 6.75268 12.551 6.78124C12.7161 6.79638 12.871 6.86793 12.9894 6.98382C13.1079 7.09972 13.1827 7.25288 13.2014 7.41749C13.2079 7.50703 13.2098 7.59685 13.207 7.68659C13.207 10.0559 13.207 12.4252 13.207 14.7946L13.2081 15.0952Z" fill="white"/>
</g>
</g>
<defs>
<clipPath id="clip0_1849_7223">
<rect width="25" height="25" fill="white" transform="translate(0 25) rotate(-89.8945)"/>
</clipPath>
<clipPath id="clip1_1849_7223">
<rect width="23" height="23" fill="white" transform="translate(1 1)"/>
</clipPath>
</defs>
</svg>
