<svg width="13" height="7" viewBox="0 0 13 7" fill="none" xmlns="http://www.w3.org/2000/svg">
<g clip-path="url(#clip0_1849_809)">
<path d="M6.5078 7.00002C6.31036 7.00002 6.16227 6.90743 6.02406 6.77294C4.57616 5.34094 3.12728 3.90991 1.67741 2.47986C1.18134 1.99013 0.683788 1.50234 0.190187 1.00969C-0.0566142 0.762628 -0.0625375 0.412262 0.168468 0.177872C0.399474 -0.0565169 0.763752 -0.0579782 1.02487 0.187619C1.05152 0.212958 1.07719 0.239272 1.10335 0.264611C2.85728 1.99581 4.61006 3.72815 6.36169 5.46162C6.47867 5.5776 6.53099 5.56932 6.64255 5.45919C8.40536 3.71077 10.1708 1.96527 11.9389 0.222703C12.1077 0.0555603 12.2963 -0.0365386 12.5347 0.0141402C12.6344 0.0351956 12.7269 0.0814555 12.803 0.14839C12.8792 0.215325 12.9365 0.300642 12.9692 0.395985C13.0019 0.491329 13.009 0.593431 12.9898 0.692296C12.9706 0.791162 12.9257 0.8834 12.8595 0.959982C12.8279 0.997016 12.7923 1.03113 12.7573 1.06573C10.8342 2.96488 8.91114 4.86404 6.98807 6.76319C6.85282 6.89671 6.70721 6.99855 6.5078 7.00002Z" fill="#9C9C9C"/>
</g>
<defs>
<clipPath id="clip0_1849_809">
<rect width="13" height="7" fill="white"/>
</clipPath>
</defs>
</svg>
