<svg width="56" height="62" viewBox="0 0 56 62" fill="none" xmlns="http://www.w3.org/2000/svg">
<path d="M55.7923 44.7466C52.7007 38.6425 47.8213 34.858 41.0194 33.5195C40.4558 33.395 39.8718 33.3907 39.3064 33.507C38.741 33.6232 38.2071 33.8574 37.7404 34.1938C33.5563 37.004 28.9649 37.7912 24.0412 36.7225C21.8278 36.2305 19.7397 35.2954 17.9057 33.9747C17.5832 33.7326 17.2142 33.558 16.8213 33.4615C16.4284 33.365 16.0197 33.3486 15.6202 33.4133C14.2074 33.6137 12.8198 33.9606 11.4805 34.4484C6.39481 36.4005 2.6533 39.8051 0.255911 44.6623C-0.115628 45.4142 -0.0849544 46.0531 0.363277 46.756C3.53669 51.7189 7.71224 55.6247 12.9615 58.3674C16.2253 60.0724 19.7688 61.1916 23.4276 61.6732C24.0548 61.7575 26.3011 62.0002 27.1413 62.0002H28.8643C28.9462 62.0002 31.2231 61.8198 31.6679 61.771C35.6436 61.3433 39.4998 60.1674 43.0288 58.3068C48.3497 55.505 52.5439 51.5098 55.7088 46.4391C56.0736 45.8508 56.1008 45.3467 55.7923 44.7466Z" fill="white"/>
<path d="M28.0119 32.1994C36.9374 32.1893 44.2846 24.9187 44.2829 16.0938C44.2812 7.26893 36.9323 0 28.0068 0C19.0814 0 11.7256 7.28242 11.7324 16.0989C11.7392 24.9153 19.1086 32.2078 28.0119 32.1994Z" fill="white"/>
</svg>
