<svg width="15" height="14" viewBox="0 0 15 14" fill="none" xmlns="http://www.w3.org/2000/svg">
<path fill-rule="evenodd" clip-rule="evenodd" d="M14.0634 6.0812C14.2125 6.20843 14.3377 6.35459 14.4629 6.50302C14.6289 6.69991 14.6418 7.30196 14.4325 7.54732C14.2485 7.76239 14.0363 7.94311 13.8235 8.12423C13.7846 8.15739 13.7456 8.19056 13.7068 8.22396C13.5736 8.33831 13.4496 8.46175 13.3309 8.59049C13.0527 8.89189 13.0843 9.24706 13.1566 9.60867C13.1801 9.72625 13.2086 9.84282 13.2371 9.95942C13.2805 10.1368 13.3239 10.3143 13.3499 10.4955C13.3754 10.6746 13.3837 10.8567 13.3548 11.0328C13.3016 11.3565 13.0652 11.5178 12.7741 11.6109C12.548 11.6832 12.3125 11.7011 12.0776 11.7191C12.0477 11.7214 12.0178 11.7237 11.9879 11.7261C11.7847 11.7423 11.5827 11.7635 11.3806 11.7912C10.9674 11.8476 10.7113 12.0911 10.5457 12.458C10.4943 12.5721 10.4459 12.6877 10.3976 12.8033C10.3 13.0366 10.2023 13.27 10.0792 13.4921C9.99243 13.6488 9.87409 13.776 9.73709 13.8862C9.54759 14.0381 9.3284 14.0184 9.11226 13.9684C8.87194 13.913 8.66498 13.7859 8.45853 13.6592C8.42241 13.6371 8.38631 13.6149 8.35005 13.5932L8.32221 13.5765C8.13248 13.4627 7.94258 13.3488 7.74196 13.2539C7.43943 13.1104 7.13995 13.1127 6.83629 13.2531C6.64796 13.3402 6.47204 13.448 6.29612 13.5559C6.18127 13.6263 6.06642 13.6967 5.94812 13.7613C5.82292 13.8294 5.69735 13.8949 5.5615 13.94C5.11703 14.0869 4.80386 13.9756 4.5508 13.5799C4.40985 13.3593 4.31104 13.1186 4.21235 12.8783C4.20872 12.8694 4.2051 12.8606 4.20147 12.8518C4.12004 12.6545 4.03175 12.4614 3.92939 12.2743C3.79925 12.0365 3.60327 11.8885 3.33766 11.8249C3.11467 11.7716 2.88759 11.7523 2.66043 11.733C2.63756 11.7311 2.61468 11.7292 2.59181 11.7272C2.55691 11.7242 2.52197 11.7213 2.48702 11.7185C2.21493 11.6963 1.94264 11.6742 1.685 11.5708C1.3722 11.4451 1.22684 11.2153 1.20972 10.8821C1.19393 10.5737 1.26443 10.2817 1.33499 9.98959C1.35965 9.88749 1.38432 9.78537 1.40531 9.6825C1.43689 9.52991 1.46239 9.37731 1.47038 9.22018C1.48408 8.94528 1.37753 8.72567 1.19373 8.53066C1.03986 8.36729 0.868898 8.22311 0.697956 8.07895C0.622866 8.01562 0.547779 7.95229 0.474145 7.88734C0.244303 7.68477 0.034248 7.47159 0 7.14558V6.86159C0.034248 6.5352 0.244683 6.3224 0.474145 6.11945C0.672403 5.94376 0.873325 5.77072 1.07539 5.59957C1.46011 5.27355 1.53507 4.87105 1.42472 4.40721C1.40742 4.33456 1.39068 4.2618 1.37395 4.18904C1.34724 4.07294 1.32054 3.95682 1.29153 3.84114C1.23635 3.62001 1.21961 3.39585 1.20781 3.16791C1.18688 2.75897 1.4719 2.48407 1.80563 2.39244C2.04768 2.32612 2.29554 2.30517 2.54357 2.28421C2.5646 2.28243 2.58563 2.28065 2.60665 2.27885C2.62484 2.27727 2.64303 2.27571 2.66122 2.27416C2.88351 2.25512 3.10558 2.2361 3.32472 2.1857C3.61355 2.11944 3.81409 1.95094 3.95146 1.69422C4.05794 1.49492 4.14531 1.2874 4.23269 1.07987C4.27929 0.969209 4.32588 0.858546 4.37537 0.749119C4.47317 0.532533 4.59304 0.331094 4.77303 0.168655C4.98004 -0.0180173 5.21902 -0.023697 5.46751 0.0380222C5.7399 0.105867 5.97524 0.252181 6.2099 0.398068C6.2411 0.417464 6.27228 0.436852 6.30354 0.456047C6.48163 0.565475 6.66162 0.669982 6.85075 0.758585C7.14376 0.895654 7.43677 0.893761 7.73016 0.757827C7.9513 0.655212 8.15877 0.529417 8.36627 0.403606C8.45048 0.352542 8.53471 0.301476 8.61985 0.251957C8.73477 0.184937 8.85273 0.125489 8.97717 0.0774014C9.41326 -0.0910959 9.75422 0.0145462 10.0115 0.403794C10.1496 0.612465 10.2462 0.842214 10.3427 1.07156C10.3544 1.0994 10.3661 1.12724 10.3779 1.15503L10.3816 1.16386C10.4614 1.3525 10.5412 1.54102 10.6409 1.72072C10.7805 1.9729 10.9868 2.12549 11.2687 2.18873C11.5008 2.24076 11.7362 2.25916 11.9717 2.27758C12.0807 2.2861 12.1897 2.29463 12.2985 2.30649C12.5112 2.32958 12.7243 2.35647 12.9195 2.44772C13.198 2.57798 13.3571 2.78699 13.3693 3.11073C13.3813 3.43297 13.3087 3.73916 13.2362 4.04555C13.2142 4.13842 13.1922 4.23131 13.1726 4.32467C13.1394 4.48218 13.1143 4.63932 13.1079 4.80138C13.0976 5.06568 13.2011 5.27696 13.3758 5.46591C13.5388 5.64253 13.7225 5.79581 13.9061 5.94906C13.9587 5.99293 14.0113 6.03679 14.0634 6.0812Z" fill="#40C07B"/>
<path d="M3.00039 7.33457C3.04875 7.21981 3.10475 7.11204 3.22418 7.05625C3.37239 6.98687 3.51199 7.00087 3.64278 7.09904C3.6741 7.12244 3.70171 7.15123 3.72931 7.17942C4.30591 7.76765 4.88291 8.35568 5.45755 8.94612C5.50904 8.9991 5.53371 9.0083 5.59147 8.94911C7.15269 7.35037 8.71685 5.75463 10.2794 4.15748C10.4026 4.03152 10.5408 3.96614 10.7155 4.01772C10.9827 4.0969 11.0879 4.4318 10.9167 4.65514C10.896 4.68233 10.8729 4.70792 10.849 4.73232C9.18087 6.43623 7.51255 8.13995 5.84423 9.84346C5.6827 10.0084 5.50219 10.0438 5.32911 9.94583C5.2831 9.91984 5.24551 9.88305 5.2087 9.84546C4.52363 9.14606 3.83915 8.44586 3.15291 7.74766C3.08106 7.67448 3.03328 7.5899 3 7.49433L3.00039 7.33457Z" fill="white"/>
</svg>
