<svg width="23" height="20" viewBox="0 0 23 20" fill="none" xmlns="http://www.w3.org/2000/svg">
<path d="M23 6.80828C23 8.40716 22.4606 9.82378 21.677 11.1545C20.5779 13.0216 19.1322 14.5626 17.5665 15.9882C16.194 17.2263 14.7456 18.3673 13.2308 19.4038C12.0839 20.1973 10.9433 20.2002 9.79361 19.4038C7.56367 17.8538 5.44456 16.1623 3.58148 14.13C2.39531 12.8341 1.31927 11.4427 0.650783 9.76599C-0.456121 6.98832 -0.183252 4.36921 1.7177 2.08202C3.7821 -0.400773 7.3841 -0.682319 9.90655 1.34111C10.4564 1.77171 10.9468 2.28117 11.3635 2.85478C11.4806 3.01927 11.5395 3.01556 11.6602 2.85478C12.6044 1.58338 13.7793 0.65206 15.2713 0.229741C18.5738 -0.706028 21.9085 1.37667 22.7629 4.89747C22.826 5.15679 22.8758 5.41611 22.9186 5.68358C22.972 6.05585 22.9992 6.43177 23 6.80828Z" fill="#40C07B"/>
<path d="M21.9996 6.44199C22.0163 8.09988 21.498 9.36422 20.7917 10.5557C19.7646 12.2888 18.4249 13.7259 16.9948 15.0661C15.5907 16.3831 14.0838 17.5452 12.5256 18.6414C11.8336 19.1272 11.1728 19.1163 10.4824 18.6275C8.10916 16.9456 5.85029 15.1165 3.91278 12.8683C2.90385 11.6969 1.98467 10.4457 1.45199 8.9389C0.635581 6.6287 0.89324 4.46569 2.48624 2.62574C4.15886 0.693597 6.84112 0.477451 8.91398 2.01061C9.63215 2.55393 10.2425 3.24436 10.7096 4.04192C10.7741 4.14728 10.8363 4.25419 10.9007 4.35878C11.2459 4.922 11.809 4.91812 12.1405 4.33863C12.4715 3.73803 12.8734 3.18551 13.3362 2.69469C14.3451 1.65657 15.5328 1.03137 16.9485 1.01588C19.3695 0.988762 21.4018 2.78223 21.8758 5.32485C21.9479 5.69258 21.9893 6.06643 21.9996 6.44199Z" fill="#40C07B"/>
</svg>
