<svg width="25" height="21" viewBox="0 0 25 21" fill="none" xmlns="http://www.w3.org/2000/svg">
<path d="M22.891 7.05326C22.4939 6.0146 21.9028 5.05801 21.1482 4.23271C20.423 3.43725 19.5894 2.74411 18.6712 2.17297C17.8425 1.65828 16.9592 1.23395 16.037 0.907527C15.0906 0.554488 14.1013 0.324469 13.0943 0.223308C13.1473 0.221337 13.2 0.215527 13.2521 0.205928C13.3451 0.0881364 13.2463 0.0508059 13.1637 0.0231282C13.0763 0.00267218 12.9861 -0.00427733 12.8965 0.00253039C12.2771 -0.00325283 11.6578 0.0257579 11.0417 0.0894239C9.69992 0.205521 8.37991 0.497104 7.11663 0.956446C5.0064 1.73786 3.17714 2.91255 1.76115 4.65882C1.01099 5.57353 0.462143 6.63128 0.149329 7.76516C0.0412634 8.16102 0.0838329 8.57489 0 8.97396V10.2265C0.00696904 10.2326 0.0125505 10.24 0.0163736 10.2483C0.0201967 10.2567 0.0221739 10.2657 0.0221739 10.2748C0.0221739 10.284 0.0201967 10.293 0.0163736 10.3013C0.0125505 10.3096 0.00696904 10.3171 0 10.3231V10.5638C0.0314373 10.5967 0.0235777 10.6378 0.0242326 10.6771C0.0360216 11.7572 0.406719 12.7304 0.928055 13.6624C1.40148 14.507 2.00931 15.2717 2.7285 15.9275C2.88045 16.0665 2.92498 16.2056 2.83198 16.3961C2.52863 17.0194 2.17446 17.6176 1.77294 18.1848C1.47494 18.6 1.1121 18.9573 0.783971 19.3435C0.596657 19.5649 0.582899 19.7786 0.751875 19.973C0.906442 20.15 1.11602 20.1731 1.33412 20.157C2.09779 20.0991 2.8608 20.0354 3.61333 19.8848C4.77581 19.6611 5.90717 19.3027 6.98367 18.8169C7.08441 18.7652 7.19517 18.7351 7.30864 18.7285C7.4221 18.722 7.53568 18.7392 7.64189 18.779C8.11091 18.9435 8.59106 19.0755 9.07884 19.1742C10.0259 19.3809 11.5302 19.327 12.5 19.3548C12.8036 19.2652 13.0526 19.1313 13.3688 19.1098C13.9064 19.0785 13.964 19.2446 14.4847 19.1098C15.9395 18.766 17.3299 18.1983 18.6044 17.4279C19.705 16.7621 20.6819 15.9164 21.4927 14.9272C22.5497 13.6354 23.1916 12.1672 23.3494 10.5007C23.4665 9.33226 23.3097 8.15292 22.891 7.05326ZM12.4846 0.19048C12.4125 0.19048 12.3405 0.187263 12.2678 0.187263H12.3261C12.3791 0.185332 12.4315 0.187262 12.4846 0.19048ZM7.46309 11.9007C7.23548 11.9221 7.00637 11.8797 6.80225 11.7784C6.44016 11.6586 6.12624 11.4287 5.90594 11.122C5.68563 10.8152 5.57038 10.4475 5.57685 10.0721C5.57536 9.70073 5.69295 9.33836 5.91292 9.03644C6.1329 8.73452 6.44407 8.50839 6.80225 8.39016C7.77288 7.97242 9.01335 8.65535 9.21114 9.71547C9.42072 10.8438 8.62758 11.8415 7.46309 11.9007ZM12.6319 11.9007C12.3961 11.9255 12.1579 11.8843 11.9449 11.7816C11.584 11.6626 11.2707 11.4344 11.0498 11.1298C10.8289 10.8251 10.7117 10.4597 10.7149 10.0856C10.7113 9.71158 10.8283 9.34606 11.0491 9.04147C11.27 8.73688 11.5833 8.50888 11.9442 8.39016C12.8369 7.99881 14.1632 8.56781 14.3551 9.77533C14.5319 10.8844 13.7741 11.8093 12.6319 11.8994V11.9007ZM17.7975 11.9007C17.5538 11.9292 17.3069 11.889 17.0855 11.7849C16.7248 11.6644 16.4114 11.4359 16.1895 11.1315C15.9677 10.8271 15.8483 10.462 15.8483 10.0875C15.848 9.71303 15.9672 9.34789 16.1891 9.0435C16.4111 8.73911 16.7246 8.51083 17.0855 8.3908C18.0909 7.96985 19.3778 8.71972 19.5036 9.80044C19.6339 10.9095 18.9272 11.7855 17.7975 11.8975V11.9007Z" fill="#40C07B"/>
<path d="M13.2643 0.0133678C16.2179 0.140888 18.8785 1.10749 21.2482 2.86854C22.8871 4.08635 24.1189 5.61021 24.6813 7.57465C25.3859 10.0345 24.9057 12.3076 23.3934 14.3689C22.0233 16.2339 20.1566 17.4638 17.9899 18.2825C16.0326 19.0221 14.0016 19.4251 11.9072 19.3447C12.3163 19.2389 12.7378 19.1279 13.1534 19.0616C16.1879 18.5745 18.8596 17.3905 20.9533 15.134C22.1988 13.7951 22.9667 12.2227 23.1383 10.3967C23.3405 8.24222 22.6816 6.33899 21.3186 4.67549C19.4024 2.33997 16.8325 1.06732 13.8809 0.448211C13.3243 0.33153 11.8583 0.113471 11.29 0.0656514C11.8237 0.0146434 12.101 0.0146456 12.1819 0.0120952C12.5329 -0.0121335 12.9126 0.00635419 13.2643 0.0133678Z" fill="#40C07B"/>
</svg>
