<svg width="12" height="13" viewBox="0 0 12 13" fill="none" xmlns="http://www.w3.org/2000/svg">
<rect width="12" height="12.5" rx="6" fill="#00CE52"/>
<g clip-path="url(#clip0_1849_5796)">
<path d="M9.99998 4.41166C9.95483 4.52716 9.86032 4.6085 9.76782 4.6925C8.23468 6.084 6.7019 7.47583 5.16986 8.86833C5.05442 8.97317 4.92577 9.02767 4.76133 8.986C4.69123 8.96833 4.6347 8.93066 4.58405 8.88466C3.93163 8.29216 3.27884 7.7 2.62715 7.10683C2.4963 6.98766 2.46621 6.84183 2.53796 6.70633C2.6077 6.57466 2.74975 6.50133 2.91382 6.51383C3.01916 6.522 3.09972 6.57266 3.1724 6.63866C3.71746 7.13433 4.26307 7.62933 4.80832 8.125C4.82704 8.142 4.84245 8.16233 4.86833 8.19116C4.89457 8.16166 4.91109 8.13916 4.93164 8.12033C6.39487 6.79116 7.85882 5.46233 9.32186 4.1325C9.44611 4.01966 9.58411 3.96583 9.75754 4.02316C9.89041 4.067 9.95777 4.16316 9.99979 4.27866V4.41166H9.99998Z" fill="white"/>
</g>
<defs>
<clipPath id="clip0_1849_5796">
<rect width="7.5" height="5" fill="white" transform="translate(2.5 4)"/>
</clipPath>
</defs>
</svg>
