<svg width="24" height="23" viewBox="0 0 24 23" fill="none" xmlns="http://www.w3.org/2000/svg">
<g clip-path="url(#clip0_1849_7232)">
<path d="M23.8591 6.18355C23.2854 3.25674 21.6959 1.25704 19.0918 0.37385C16.4877 -0.509341 14.1516 0.194054 12.1657 2.24317C12.0235 2.39002 11.9659 2.38728 11.8268 2.24317C10.2818 0.60717 8.43673 -0.147007 6.29044 0.0643549C3.29177 0.360124 0.861773 2.70981 0.172229 5.93719C0.1096 6.23982 0.1096 6.55481 0 6.84921V7.97876C0.00666413 7.9852 0.0120014 7.99311 0.0156572 8.00199C0.019313 8.01086 0.0212076 8.02049 0.0212076 8.03022C0.0212076 8.03996 0.019313 8.04958 0.0156572 8.05846C0.0120014 8.06733 0.00666413 8.07525 0 8.08169V8.38913C0.0626289 8.4104 0.0438426 8.4701 0.0494792 8.51677C0.112209 9.03327 0.215937 9.54279 0.359489 10.0395C0.933169 12.0042 1.95903 13.6766 3.17278 15.2213C5.55268 18.2483 8.39477 20.6742 11.4611 22.805C11.8456 23.0719 12.1844 23.0637 12.5659 22.7981C15.2213 20.9453 17.7014 18.8556 19.8859 16.3598C21.1491 14.9187 22.2771 13.3602 23.08 11.5493C23.8347 9.84807 24.2292 8.07414 23.8591 6.18355ZM21.3821 11.5767C20.4014 13.4296 19.0943 14.9901 17.6726 16.4401C15.9603 18.1859 14.099 19.7231 12.145 21.1278C12.0554 21.1916 11.9909 21.2307 11.8794 21.1504C9.115 19.15 6.51152 16.9397 4.32828 14.1851C3.28488 12.8689 2.37927 11.4518 1.85381 9.78425C1.01208 7.11615 1.7486 4.39521 3.73268 2.8052C4.89109 1.88129 6.33566 1.4961 7.75198 1.73348C9.1683 1.97086 10.4417 2.81159 11.2951 4.07268C11.4761 4.33963 11.6765 4.54481 12.0022 4.53932C12.2953 4.53383 12.492 4.36433 12.6592 4.1166C13.5548 2.78873 14.7529 1.99337 16.2372 1.72506C18.9928 1.22753 21.7485 3.2739 22.3491 6.26179C22.4431 6.70368 22.4912 7.15581 22.4925 7.60956C22.4794 9.05272 22.0316 10.3504 21.3821 11.5781V11.5767Z" fill="white"/>
</g>
<defs>
<clipPath id="clip0_1849_7232">
<rect width="24" height="23" fill="white"/>
</clipPath>
</defs>
</svg>
