<svg width="19" height="17" viewBox="0 0 19 17" fill="none" xmlns="http://www.w3.org/2000/svg">
<path fill-rule="evenodd" clip-rule="evenodd" d="M15.1431 0.284532C17.188 0.94072 18.4259 2.41498 18.8979 4.55863C18.9108 4.61768 18.9176 4.67805 18.9244 4.73831C18.937 4.84945 18.9495 4.9602 19 5.06156L19 5.21381C18.9504 5.23867 18.9598 5.26405 19 5.28942L19 5.89841C18.9628 5.92379 18.9504 5.94916 19 5.97454L19 6.2024C18.9426 6.35445 18.9186 6.51369 18.8945 6.673C18.8787 6.77797 18.8628 6.88297 18.8374 6.98597C18.5132 8.29581 17.8707 9.43716 17.082 10.5029C15.9388 12.0441 14.5685 13.355 13.0991 14.5628C12.1085 15.3693 11.0783 16.1236 10.0126 16.8227C9.66955 17.0511 9.37211 17.0592 9.02508 16.8308C6.77142 15.3581 4.67243 13.6925 2.86791 11.6625C1.90369 10.5775 1.05893 9.40722 0.510636 8.03699C-0.278593 6.06792 -0.185394 4.16533 1.01778 2.39469C2.95467 -0.455388 6.96625 -0.799975 9.37211 1.65883C9.48563 1.77453 9.53223 1.75931 9.6403 1.65476C11.2212 0.137359 13.0709 -0.380283 15.1431 0.284532Z" fill="white"/>
</svg>
