<svg width="23" height="23" viewBox="0 0 23 23" fill="none" xmlns="http://www.w3.org/2000/svg">
<path d="M12.8168 0.483184C12.4609 0.172891 11.9897 0 11.5 0C11.0103 0 10.5391 0.172891 10.1833 0.483184L0.898918 8.57566C0.614641 8.82376 0.388282 9.12278 0.233712 9.4544C0.0791412 9.78602 -0.000386346 10.1432 1.41115e-06 10.5042V20.3502C0.000509521 21.0532 0.303635 21.7271 0.842747 22.224C1.38186 22.7209 2.11284 23 2.875 23H5.75C6.5125 23 7.24377 22.7206 7.78293 22.2234C8.3221 21.7261 8.625 21.0517 8.625 20.3485V15.9292C8.625 15.6948 8.72597 15.47 8.90569 15.3043C9.08541 15.1385 9.32917 15.0454 9.58333 15.0454H13.4167C13.6708 15.0454 13.9146 15.1385 14.0943 15.3043C14.274 15.47 14.375 15.6948 14.375 15.9292V20.3485C14.375 21.0517 14.6779 21.7261 15.2171 22.2234C15.7562 22.7206 16.4875 23 17.25 23H20.125C20.8875 23 21.6188 22.7206 22.1579 22.2234C22.6971 21.7261 23 21.0517 23 20.3485V10.5024C22.9999 10.1417 22.9199 9.78468 22.765 9.45337C22.6101 9.12207 22.3836 8.82341 22.0992 8.57566L12.8168 0.479649V0.483184Z" fill="white"/>
</svg>
