<svg width="24" height="24" viewBox="0 0 24 24" fill="none" xmlns="http://www.w3.org/2000/svg">
<path d="M23.939 10.3202C23.7692 9.04906 23.3888 7.8151 22.8136 6.669C22.0666 5.16029 21.0317 3.87348 19.7426 2.78792C18.3828 1.64232 16.8409 0.853251 15.1294 0.377557C13.6851 -0.0235453 12.2112 -0.0526311 10.7374 0.0491692C9.21482 0.155661 7.7832 0.629008 6.43035 1.32754C4.99075 2.0711 3.76406 3.08676 2.72211 4.32478C1.58309 5.67821 0.799513 7.21741 0.337154 8.92221C0.156118 9.59838 0.0431723 10.291 0 10.9896V11.2242V11.5995V12.1156V12.397V12.5378V12.8192V13.0069C0.0468924 13.2354 0.0281341 13.469 0.0572074 13.6984C0.227223 14.9836 0.611608 16.2311 1.19435 17.389C1.93853 18.8902 2.9711 20.1657 4.24938 21.2461C5.77479 22.5353 7.52107 23.3741 9.46992 23.8029C9.96463 23.9117 10.4678 23.9492 10.9705 24.0055H12.94C13.1843 23.9614 13.4342 23.9802 13.679 23.9483C14.9271 23.7843 16.1403 23.4188 17.2714 22.866C18.8071 22.1206 20.1183 21.0801 21.2235 19.7806C22.5604 18.209 23.4167 16.4066 23.8326 14.3899C23.9236 13.948 23.9461 13.4985 24.0023 13.0538V12.5378V12.397V12.1156V11.9279V11.6464V11.5057V11.0835C23.9536 10.8301 23.9719 10.5731 23.939 10.3202ZM17.7736 20.8873C16.0147 22.016 14.0916 22.5789 12.0101 22.5986C9.89992 22.5813 7.9642 22.0089 6.19542 20.8657C6.05474 20.7719 6.01958 20.6827 6.05147 20.5256C6.53821 18.1105 8.60944 16.1524 11.0502 15.8048C14.2961 15.3431 17.1931 17.306 17.9321 20.4716C17.9767 20.6588 17.956 20.7704 17.7736 20.8873ZM8.18881 10.514C8.18743 9.76023 8.40937 9.023 8.82659 8.39539C9.24381 7.76778 9.83758 7.27796 10.5329 6.98779C11.2283 6.69762 11.994 6.62013 12.7333 6.76509C13.4726 6.91006 14.1524 7.27099 14.6868 7.80228C15.2213 8.33358 15.5863 9.01141 15.7358 9.75014C15.8853 10.4889 15.8127 11.2554 15.527 11.9528C15.2413 12.6503 14.7554 13.2473 14.1307 13.6687C13.506 14.09 12.7705 14.3166 12.0171 14.32C11.5157 14.3223 11.0188 14.2256 10.5548 14.0355C10.0909 13.8454 9.66897 13.5655 9.31333 13.2119C8.95768 12.8583 8.67529 12.438 8.48233 11.975C8.28936 11.5121 8.18961 11.0156 8.18881 10.514ZM19.2001 19.7487C18.8876 18.6646 18.335 17.6649 17.5834 16.8237C16.8317 15.9826 15.9003 15.3216 14.8583 14.89C16.3814 13.7978 17.2128 12.352 17.2133 10.4844C17.2133 9.00759 16.6505 7.75456 15.5875 6.73139C13.4886 4.71791 10.1264 4.8441 8.14053 7.00443C6.05334 9.27406 6.35861 13.0294 9.13089 14.8857C6.94805 15.8582 5.50705 17.4687 4.79944 19.7327C2.21379 17.4603 0.620391 13.3526 1.79833 9.16944C3.03535 4.78405 6.93351 1.65405 11.5121 1.45702C16.1676 1.25435 20.349 4.04565 21.9433 8.38178C23.4964 12.603 22.1496 17.0714 19.2001 19.7487Z" fill="white"/>
</svg>
