<svg width="31" height="31" viewBox="0 0 31 31" fill="none" xmlns="http://www.w3.org/2000/svg">
<g filter="url(#filter0_b_1849_5514)">
<rect width="31" height="31" rx="15.5" fill="white" fill-opacity="0.2"/>
</g>
<g clip-path="url(#clip0_1849_5514)">
<path d="M15.4999 23.9996C13.8803 23.9996 12.5672 22.7222 12.5672 21.1464C12.5672 19.5706 13.8803 18.2932 15.4999 18.2932C17.1196 18.2932 18.4326 19.5706 18.4326 21.1464C18.4326 22.7222 17.1196 23.9996 15.4999 23.9996Z" fill="#FE9F00"/>
<path d="M12.4045 21.1457C11.4057 21.143 10.4071 21.1406 9.40852 21.1386H9.39726C9.28264 21.1392 9.16823 21.1287 9.05578 21.1071H9.04663C9.02131 21.1019 8.99599 21.0961 8.97102 21.0896L8.95379 21.0848C8.92917 21.0783 8.90491 21.0711 8.88064 21.0629L8.87466 21.0609C8.77669 21.0278 8.68326 20.9831 8.59648 20.9278C8.41386 20.8151 8.26336 20.6594 8.15887 20.4751C8.05438 20.2909 7.99927 20.084 7.99862 19.8736C7.99669 19.6898 8.036 19.5079 8.1138 19.3404C8.19161 19.1729 8.30605 19.024 8.44913 18.904C8.4551 18.8985 8.46073 18.8927 8.46671 18.8875C9.55693 17.9401 10.1615 16.772 10.2353 15.3494C10.2359 15.3286 10.2399 15.3081 10.2469 15.2885C10.249 15.2272 10.2504 15.166 10.2501 15.1044C10.2501 14.4545 10.2501 13.8044 10.2501 13.1541C10.2561 10.6653 11.9786 8.6035 14.4833 8.09883C14.8073 8.03369 15.1372 8.0009 15.468 8.00098H15.5313C15.8621 8.0009 16.1921 8.03369 16.516 8.09883C19.0211 8.60453 20.7436 10.665 20.7492 13.1541C20.7509 13.8037 20.7509 14.4538 20.7492 15.1044C20.7492 15.166 20.7492 15.2272 20.7528 15.2885C20.7597 15.3081 20.7635 15.3286 20.764 15.3494C20.8382 16.772 21.4428 17.9401 22.5326 18.8875C22.539 18.8927 22.5446 18.8985 22.5506 18.904C22.6929 19.0241 22.8067 19.1729 22.8841 19.34C22.9615 19.5071 23.0007 19.6886 22.999 19.8719C22.9983 20.0823 22.9432 20.2892 22.8387 20.4734C22.7342 20.6577 22.5837 20.8133 22.4011 20.9261C22.3142 20.9813 22.2207 21.026 22.1226 21.0592L22.1169 21.0612C22.0927 21.0694 22.0681 21.0766 22.0434 21.0831L22.0262 21.0879C22.0012 21.0944 21.9763 21.1002 21.9506 21.1054H21.9418C21.8294 21.127 21.7149 21.1375 21.6003 21.1368H21.5891C20.5903 21.1368 18.4355 21.1474 18.349 21.144H12.402L12.4045 21.1457Z" fill="#FEC007"/>
</g>
<defs>
<filter id="filter0_b_1849_5514" x="-4" y="-4" width="39" height="39" filterUnits="userSpaceOnUse" color-interpolation-filters="sRGB">
<feFlood flood-opacity="0" result="BackgroundImageFix"/>
<feGaussianBlur in="BackgroundImageFix" stdDeviation="2"/>
<feComposite in2="SourceAlpha" operator="in" result="effect1_backgroundBlur_1849_5514"/>
<feBlend mode="normal" in="SourceGraphic" in2="effect1_backgroundBlur_1849_5514" result="shape"/>
</filter>
<clipPath id="clip0_1849_5514">
<rect width="15" height="16" fill="white" transform="matrix(-1 0 0 1 23 8)"/>
</clipPath>
</defs>
</svg>
