<svg width="25" height="29" viewBox="0 0 25 29" fill="none" xmlns="http://www.w3.org/2000/svg">
<g clip-path="url(#clip0_1849_5506)">
<path d="M24.5723 9.40291C24.102 9.00689 23.6287 8.61391 23.1577 8.21789C22.9359 8.03162 22.9403 7.441 23.1643 7.25322C23.6354 6.8572 24.1094 6.46573 24.5797 6.06896C25.0374 5.68279 25.1219 5.21635 24.8274 4.68707C24.5218 4.13885 24.2125 3.59216 23.8987 3.04849C23.5916 2.51693 23.1784 2.37079 22.6035 2.58659C22.0413 2.79785 21.4819 3.01593 20.9204 3.2287C20.6 3.34985 20.1297 3.07499 20.0733 2.73425C19.9813 2.17695 19.8752 1.62041 19.804 1.06008C19.7387 0.548213 19.5184 0.177942 19.0296 0H16.5876C16.0535 0.0749628 15.8265 0.436147 15.7471 0.937413C15.6566 1.50531 15.5669 2.07321 15.4682 2.64036C15.3977 3.04849 15.0291 3.26126 14.6411 3.12421C14.1174 2.93869 13.6026 2.72743 13.0811 2.53511C12.4142 2.28977 11.9907 2.43061 11.6235 3.04849C11.5041 3.2499 11.3616 3.33547 11.1302 3.32789C10.2912 3.30215 9.47451 3.4498 8.67411 3.69741C8.42116 3.77616 8.39445 3.75571 8.43599 3.48993C8.61699 2.3405 9.25123 1.55605 10.3261 1.19259C11.4336 0.818533 12.4001 1.12368 13.2117 1.96493C13.2888 2.0452 13.3496 2.14212 13.4431 2.20724C13.6649 2.36171 13.9142 2.35641 14.1107 2.19058C14.3036 2.02702 14.3518 1.7726 14.2346 1.525C14.1693 1.38795 14.0759 1.27134 13.972 1.1623C13.3326 0.49218 12.5826 0.053004 11.6472 0H11.0924C10.9811 0.0461892 10.8706 0.0461892 10.7593 0H10.648C10.6295 0.0166584 10.6124 0.0461892 10.5917 0.049218C8.87884 0.277135 7.26321 1.90739 7.38858 4.12447C7.39674 4.26304 7.34926 4.31755 7.23799 4.38116C4.20924 6.11439 2.67372 8.75474 2.64925 12.3007C2.63886 13.8492 2.64257 15.3977 2.64925 16.9454C2.65295 17.6874 2.54243 18.4106 2.34808 19.1223C1.98979 20.433 1.36149 21.5953 0.463174 22.6017C0.127882 22.9772 -0.0686933 23.3975 0.0188386 23.9124C0.150136 24.6817 0.70945 25.1443 1.50911 25.1466C3.21969 25.1504 4.93101 25.1542 6.64159 25.1406C6.88119 25.1383 6.94795 25.2148 6.9843 25.4396C7.31588 27.4636 9.11325 28.9932 11.1547 29.0008C13.2005 29.0083 15.0268 27.4682 15.3525 25.4396C15.3911 25.1973 15.4652 25.1406 15.6959 25.1421C17.4065 25.1527 19.1178 25.1504 20.8284 25.1466C21.5546 25.1451 22.0902 24.7597 22.2749 24.1047C22.4418 23.5118 22.2482 23.0227 21.8558 22.5767C20.7609 21.3349 20.08 19.8848 19.7958 18.2372C19.6178 17.2043 19.7269 16.1655 19.6942 15.1289C19.6913 15.035 19.6824 14.9365 19.7031 14.8464C19.8678 14.1392 19.939 13.4161 20.0748 12.7043C20.1282 12.4226 20.6059 12.1311 20.8715 12.231C21.4508 12.4499 22.0272 12.6748 22.6065 12.8928C23.1703 13.1049 23.5946 12.9504 23.9002 12.4188C24.2088 11.8827 24.5122 11.3444 24.8148 10.8045C25.1227 10.2555 25.0418 9.80044 24.5693 9.40215L24.5723 9.40291ZM22.9329 3.48766C23.0353 3.44677 23.062 3.50205 23.1005 3.5702C23.395 4.09039 23.6873 4.61286 23.99 5.12852C24.0582 5.24437 24.0115 5.29207 23.9321 5.35719C23.5671 5.65856 23.2044 5.96371 22.815 6.29006C22.5568 5.42458 22.1481 4.68631 21.5317 4.02906C22.0138 3.84355 22.476 3.67015 22.9336 3.48766H22.9329ZM16.5416 2.39578C16.618 1.96948 16.6907 1.54242 16.7537 1.11308C16.7723 0.988903 16.8279 0.961644 16.937 0.963158C17.2233 0.968459 17.5104 0.964673 17.7967 0.964673C18.0741 0.964673 18.3516 0.97073 18.629 0.961644C18.7596 0.957101 18.8323 0.986631 18.853 1.13277C18.9146 1.5621 18.9791 1.99068 19.0585 2.41622C19.0882 2.57599 19.0222 2.57069 18.9161 2.54646C18.1743 2.37609 17.4317 2.37231 16.6907 2.54646C16.5446 2.58129 16.5156 2.53359 16.5408 2.39427L16.5416 2.39578ZM11.6131 5.1376C11.9128 4.60908 12.2125 4.08131 12.5114 3.55202C12.5463 3.49069 12.5752 3.4498 12.6613 3.48388C13.1219 3.66636 13.5848 3.84203 14.0714 4.02906C13.4631 4.68555 13.0448 5.41701 12.7926 6.28855C12.3905 5.95386 12.0025 5.63054 11.6138 5.30797C11.5434 5.24967 11.5812 5.19363 11.6138 5.13684L11.6131 5.1376ZM14.0699 11.4413C13.5789 11.6313 13.1115 11.8116 12.6449 11.9925C12.5352 12.0349 12.5225 11.9342 12.4899 11.8782C12.2013 11.3754 11.918 10.8704 11.6302 10.3676C11.5819 10.2835 11.5345 10.2207 11.6413 10.1351C12.0233 9.82694 12.3987 9.50967 12.7903 9.18408C13.0411 10.0435 13.4542 10.778 14.0692 11.442L14.0699 11.4413ZM14.4074 25.4018C14.0759 26.92 12.7199 28.0353 11.1881 28.0444C9.65921 28.0535 8.28986 26.9518 7.93825 25.4381C7.88632 25.2155 7.91228 25.136 8.16969 25.1406C9.1674 25.158 10.1651 25.1474 11.1636 25.1474C12.1798 25.1474 13.1961 25.1542 14.2124 25.1421C14.4349 25.139 14.4482 25.2163 14.4082 25.4018H14.4074ZM21.0547 23.1166C21.1214 23.1945 21.1904 23.271 21.2572 23.3498C21.3989 23.5164 21.4263 23.7064 21.3425 23.904C21.2602 24.0971 21.0947 24.1736 20.8952 24.1797C20.8396 24.1812 20.7839 24.1797 20.729 24.1797C14.3563 24.1797 7.9835 24.1797 1.61073 24.1797C1.57364 24.1797 1.53655 24.1797 1.49946 24.1797C1.28063 24.1842 1.09593 24.1191 0.997267 23.9018C0.894157 23.6746 0.963886 23.4808 1.12115 23.3074C1.72052 22.6456 2.22123 21.9141 2.61438 21.1062C3.25752 19.7849 3.60023 18.3924 3.59652 16.9121C3.59207 15.2788 3.58391 13.6447 3.59949 12.0122C3.63138 8.61618 5.80484 5.67521 8.9916 4.68934C9.39884 4.56364 9.81276 4.46824 10.2356 4.42129C10.4604 4.3963 10.6851 4.34633 10.9433 4.37662C10.878 4.49474 10.8238 4.5909 10.7712 4.68707C10.4796 5.21786 10.562 5.67597 11.0256 6.06744C11.4959 6.46422 11.9706 6.85493 12.4424 7.25019C12.6672 7.43873 12.6694 8.02935 12.4461 8.21789C11.9825 8.60785 11.5167 8.99553 11.0508 9.38322C10.5575 9.79362 10.4715 10.2442 10.7853 10.8037C11.0924 11.3512 11.4024 11.8979 11.7162 12.4408C12.004 12.939 12.4372 13.1003 12.9691 12.9019C13.5492 12.6861 14.1248 12.459 14.7034 12.2379C15.0113 12.1205 15.4838 12.4037 15.535 12.7293C15.6299 13.3343 15.7241 13.9393 15.8265 14.5435C15.9348 15.1811 16.2768 15.4688 16.9147 15.4704C17.4421 15.4719 17.9695 15.4802 18.4962 15.4658C18.6965 15.4605 18.7581 15.5037 18.7588 15.7233C18.7618 16.4683 18.7121 17.2142 18.8018 17.9585C19.037 19.9144 19.7914 21.6317 21.0569 23.1173L21.0547 23.1166ZM16.71 12.9262C17.4399 13.098 18.1713 13.0958 18.9005 12.9254C19.0526 12.8898 19.0882 12.9209 19.0548 13.089C18.9747 13.4941 18.9139 13.9037 18.8567 14.3126C18.836 14.464 18.7766 14.5155 18.626 14.5087C18.3501 14.4966 18.0727 14.5049 17.796 14.5049C17.5193 14.5049 17.2426 14.5004 16.9659 14.5072C16.8398 14.5102 16.7686 14.492 16.7478 14.3346C16.6929 13.9158 16.6202 13.4986 16.5423 13.0837C16.5104 12.9148 16.5638 12.8921 16.7085 12.9262H16.71ZM17.8123 12.0826C15.4578 12.0902 13.5373 10.1404 13.5358 7.7401C13.5344 5.34507 15.4267 3.40286 17.7745 3.38998C20.1341 3.37711 22.0509 5.30873 22.0672 7.71662C22.0835 10.1116 20.1705 12.0751 17.8123 12.0826ZM23.9811 10.354C23.6851 10.8628 23.398 11.3777 23.1094 11.8911C23.0664 11.9683 23.036 12.0266 22.9203 11.9797C22.4693 11.7957 22.0123 11.626 21.5287 11.4405C22.1436 10.7833 22.5568 10.039 22.8135 9.17953C23.1992 9.50362 23.5664 9.81558 23.9388 10.1215C24.027 10.1934 24.0426 10.2479 23.9811 10.354Z" fill="white"/>
<path d="M17.8317 5.32315C16.512 5.31179 15.4371 6.38701 15.4297 7.72498C15.4223 9.04857 16.4838 10.1412 17.7834 10.148C19.1016 10.1548 20.1735 9.06977 20.1691 7.73104C20.1646 6.40973 19.1209 5.33375 17.8317 5.32239V5.32315ZM17.8109 9.18259C17.0224 9.18638 16.374 8.53064 16.3763 7.73255C16.3785 6.94355 17.0164 6.29236 17.7894 6.28782C18.5838 6.28327 19.2196 6.92917 19.2173 7.73861C19.2158 8.53746 18.5913 9.17805 17.8101 9.18183L17.8109 9.18259Z" fill="white"/>
</g>
<defs>
<clipPath id="clip0_1849_5506">
<rect width="25" height="29" fill="white"/>
</clipPath>
</defs>
</svg>
