<svg width="24" height="24" viewBox="0 0 24 24" fill="none" xmlns="http://www.w3.org/2000/svg">
<path d="M11.9722 -9.65479e-05C5.35808 0.0134411 -0.00901402 5.38488 1.13662e-05 11.983C0.00828464 18.6397 5.38215 24.0232 11.9963 23.9991C13.5735 23.9992 15.1353 23.6883 16.5923 23.0844C18.0494 22.4806 19.3731 21.5954 20.4879 20.4797C21.6027 19.364 22.4867 18.0395 23.0893 16.582C23.6919 15.1244 24.0014 13.5624 24 11.9852C24.0053 5.36006 18.6126 -0.0136342 11.9722 -9.65479e-05ZM11.9068 22.8041C6.01092 22.7905 1.18234 17.911 1.19738 11.9709C1.21242 6.03093 6.05605 1.18821 11.991 1.19423C13.4138 1.19531 14.8224 1.47692 16.1362 2.02295C17.45 2.56898 18.6433 3.3687 19.6477 4.37637C20.6521 5.38403 21.4479 6.57985 21.9897 7.8954C22.5314 9.21096 22.8085 10.6204 22.8049 12.0431C22.7891 18.0193 17.9297 22.8169 11.9068 22.8041Z" fill="white"/>
<path d="M19.2028 10.3375C19.2028 9.20332 19.2028 8.26547 19.2028 7.32911C19.2028 6.82371 18.99 6.60485 18.4913 6.59883C18.0317 6.59248 17.5736 6.54516 17.1225 6.45744C15.4129 6.12577 13.8763 5.39925 12.4639 4.39595C12.0878 4.12971 11.9065 4.13423 11.5267 4.40122C11.2432 4.59977 10.9574 4.79757 10.6603 4.97431C9.08084 5.90841 7.41039 6.54318 5.55493 6.59582C4.9946 6.61237 4.79604 6.80566 4.79604 7.36596C4.79604 9.08224 4.79604 10.7985 4.79604 12.5148C4.79382 12.8805 4.8177 13.246 4.86749 13.6083C5.46091 17.8057 9.54264 20.5825 13.6755 19.6032C15.1249 19.257 16.431 18.469 17.4132 17.3484C18.3954 16.2277 19.0052 14.8296 19.1584 13.3473C19.2645 12.2801 19.1727 11.2092 19.2028 10.3375ZM18.0054 12.5283C17.9904 15.3945 16.156 17.7433 13.4025 18.4345C10.0721 19.2701 6.62143 16.9935 6.08592 13.6151C5.91669 12.5516 6.03252 11.4814 5.99266 10.5947C5.99266 9.64706 6.00544 8.87767 5.98513 8.11279C5.97837 7.85407 6.04531 7.76382 6.30704 7.73674C8.08053 7.53744 9.72239 6.94705 11.2545 6.03627C11.5102 5.88585 11.7433 5.58501 12.0141 5.60156C12.2683 5.61961 12.5022 5.8866 12.7504 6.03551C14.2498 6.94533 15.9269 7.52313 17.6685 7.72998C17.9235 7.76006 18.019 7.827 18.0152 8.1143C17.9964 9.58539 18.0137 11.0572 18.0054 12.5283Z" fill="white"/>
<path d="M9.07078 11.7124C9.22121 11.7086 9.37163 11.8199 9.50551 11.956C10.0884 12.5404 10.6773 13.1195 11.2534 13.7099C11.376 13.8355 11.4347 13.8257 11.5543 13.7061C12.7231 12.5279 13.8959 11.3531 15.0727 10.1818C15.1862 10.0683 15.2983 9.95245 15.4638 9.92312C15.7157 9.87875 15.9346 9.94719 16.082 10.1623C16.1551 10.2614 16.1945 10.3813 16.1945 10.5045C16.1945 10.6276 16.1551 10.7476 16.082 10.8467C16.0269 10.9224 15.9642 10.9922 15.8947 11.055C14.5825 12.3687 13.2696 13.6818 11.9559 14.9945C11.5415 15.4081 11.2579 15.4059 10.8375 14.9862L8.60974 12.7578C8.41268 12.5607 8.33973 12.3283 8.45931 12.0666C8.56837 11.8342 8.7564 11.7108 9.07078 11.7124Z" fill="white"/>
</svg>
