<svg width="30" height="31" viewBox="0 0 30 31" fill="none" xmlns="http://www.w3.org/2000/svg">
<g clip-path="url(#clip0_1849_5776)">
<path d="M7.09205 23.9967C7.46485 24.2533 7.88254 24.2967 8.32015 24.2984C11.6021 24.3083 14.8844 24.3268 18.1663 24.3416C18.9248 24.3452 19.5349 23.8718 19.6597 23.1896C19.8127 22.353 19.2131 21.5554 18.362 21.4656C18.2436 21.453 18.1244 21.4508 18.0052 21.4502C16.5032 21.4427 15.0011 21.4319 13.499 21.4308C12.7369 21.43 11.9627 21.3378 11.2154 21.6418L11.3584 21.4988C14.6183 18.2389 20.2807 12.574 23.5435 9.31696C23.8688 8.99161 24.0966 8.62956 24.079 8.15363C24.0569 7.56092 23.7874 7.10472 23.2407 6.86098C22.6791 6.61032 22.1421 6.69513 21.662 7.07651C21.5694 7.14974 21.4873 7.23671 21.4035 7.32045C18.1672 10.5567 12.5265 16.1975 9.29021 19.4338L9.13996 19.584C9.11211 19.5706 9.11083 19.5557 9.1196 19.5356C9.33978 19.0218 9.3815 18.4809 9.37564 17.9269C9.35774 16.1933 9.34669 14.4593 9.34006 12.7258C9.33782 12.084 9.09591 11.5865 8.52272 11.2641C7.71216 10.8078 6.62506 11.3739 6.49922 12.3403C6.48212 12.4706 6.47954 12.6043 6.48016 12.7363C6.49436 15.9776 6.51258 19.2197 6.52235 22.4621C6.52365 22.905 6.55949 23.3311 6.81011 23.7147L7.09205 23.9967Z" fill="white"/>
</g>
<defs>
<clipPath id="clip0_1849_5776">
<rect width="17.5089" height="23.637" fill="white" transform="matrix(0.707107 0.707107 0.707107 -0.707107 0.761719 17.6666)"/>
</clipPath>
</defs>
</svg>
