<svg width="16" height="12" viewBox="0 0 16 12" fill="none" xmlns="http://www.w3.org/2000/svg">
<path d="M0.000783157 6.66915C0.0975031 6.43962 0.209495 6.22408 0.448357 6.11251C0.744782 5.97375 1.02398 6.00174 1.28555 6.19808C1.3482 6.24487 1.40342 6.30245 1.45863 6.35884C2.61183 7.5353 3.76581 8.71137 4.91509 9.89223C5.01808 9.9982 5.06742 10.0166 5.18293 9.89823C8.30538 6.70074 11.4337 3.50925 14.5589 0.314963C14.8052 0.0630351 15.0816 -0.0677276 15.4309 0.0354429C15.9654 0.193798 16.1757 0.863607 15.8335 1.31028C15.792 1.36466 15.7458 1.41585 15.698 1.46464C12.3617 4.87246 9.0251 8.27989 5.68846 11.6869C5.36541 12.0168 5.00437 12.0876 4.65822 11.8917C4.5662 11.8397 4.49101 11.7661 4.4174 11.6909C3.04726 10.2921 1.67831 8.89172 0.305823 7.49531C0.162114 7.34896 0.0665684 7.1798 0 6.98866L0.000783157 6.66915Z" fill="white"/>
</svg>
