<svg width="25" height="25" viewBox="0 0 25 25" fill="none" xmlns="http://www.w3.org/2000/svg">
<g clip-path="url(#clip0_1849_7228)">
<path d="M23.9953 11.4068C23.9961 11.0773 23.8805 10.758 23.6688 10.5054C23.4572 10.2527 23.1631 10.083 22.8385 10.0261C22.2784 9.93188 21.7129 9.86945 21.1486 9.80582C20.9938 9.78841 20.9085 9.73618 20.8641 9.5831C20.7618 9.24747 20.6263 8.92289 20.4595 8.61421C20.3959 8.49415 20.4127 8.41792 20.4925 8.31767C20.8239 7.90226 21.1502 7.48324 21.4716 7.06063C21.9644 6.41411 21.917 5.66973 21.3473 5.09284C20.8755 4.6138 20.3995 4.13716 19.9192 3.66292C19.3237 3.07402 18.5793 3.0302 17.9172 3.54286C17.503 3.86282 17.0882 4.18278 16.6782 4.50875C16.5869 4.58078 16.5155 4.6072 16.4014 4.54656C16.0779 4.37613 15.7395 4.23548 15.3905 4.12635C15.2651 4.08553 15.2104 4.0255 15.1966 3.89524C15.1366 3.37537 15.073 2.85551 15.0069 2.33445C14.9019 1.51564 14.325 1.00478 13.502 1.00238C12.8062 1.00238 12.1099 0.997576 11.4135 1.00238C11.0811 1.00029 10.7587 1.11654 10.5041 1.33035C10.2495 1.54415 10.0793 1.84155 10.0238 2.16937C9.93078 2.72945 9.86894 3.29553 9.80351 3.85982C9.7867 4.00269 9.74348 4.08793 9.59581 4.13116C9.25325 4.23626 8.9214 4.37354 8.60471 4.54116C8.56236 4.5695 8.51148 4.58224 8.46078 4.5772C8.41008 4.57217 8.36271 4.54966 8.32677 4.51355C7.90656 4.17558 7.48094 3.84601 7.05233 3.52065C6.4064 3.0296 5.66383 3.08123 5.08573 3.65452C4.60949 4.13035 4.13345 4.6074 3.65761 5.08564C3.07712 5.67153 3.0297 6.41351 3.53155 7.07024C3.85391 7.49045 4.17808 7.91066 4.51005 8.32727C4.58749 8.42392 4.59768 8.49776 4.54066 8.60521C4.3703 8.92878 4.22965 9.26713 4.12044 9.61612C4.07842 9.74819 4.00759 9.78841 3.88032 9.80281C3.36766 9.86284 2.85621 9.92768 2.34355 9.99011C1.78287 10.0591 1.36206 10.3275 1.12254 10.8509C1.07691 10.95 1.03849 11.0526 0.99707 11.1511V13.8459C1.0481 13.9773 1.04389 14.1214 1.11053 14.2511C1.36506 14.7493 1.78887 14.9936 2.32374 15.0663C2.80398 15.1311 3.28422 15.1899 3.76987 15.2464C3.8443 15.2487 3.91604 15.2747 3.97458 15.3208C4.03313 15.3668 4.07541 15.4303 4.09524 15.5021C4.18768 15.7626 4.27172 16.0286 4.41399 16.2675C4.52145 16.4476 4.50344 16.5934 4.37197 16.7555C4.06102 17.1391 3.76206 17.5323 3.46011 17.9225C2.97987 18.5462 3.05311 19.4353 3.60358 19.9377C4.12825 20.418 4.6139 20.9366 5.11575 21.4385C5.26923 21.6035 5.46343 21.7252 5.67883 21.7915C5.91207 21.8638 6.1593 21.8789 6.39961 21.8356C6.63993 21.7922 6.86629 21.6916 7.05953 21.5423C7.46834 21.2422 7.86633 20.9234 8.26494 20.6071C8.3964 20.5026 8.51586 20.4708 8.67314 20.5536C8.93816 20.6928 9.21522 20.8078 9.50096 20.897C9.57008 20.9127 9.63192 20.9512 9.67655 21.0063C9.72119 21.0614 9.74603 21.1299 9.74709 21.2008C9.79991 21.681 9.86174 22.1654 9.92718 22.6469C10.0322 23.4189 10.3954 23.8205 11.147 23.997H13.7973C13.8141 23.985 13.8297 23.9664 13.8477 23.9621C14.4763 23.8205 14.8635 23.4321 14.9727 22.803C15.0688 22.2507 15.1264 21.6918 15.1906 21.1347C15.2074 20.9913 15.2549 20.9108 15.4007 20.8664C15.7433 20.7609 16.0751 20.6234 16.3918 20.4558C16.4344 20.4274 16.4855 20.4148 16.5364 20.4202C16.5873 20.4255 16.6347 20.4485 16.6704 20.4852C17.0786 20.8124 17.4946 21.1305 17.9088 21.4505C18.5835 21.9715 19.3189 21.9265 19.927 21.3238C20.4001 20.8548 20.8709 20.3835 21.3395 19.9101C21.9176 19.3254 21.9626 18.5822 21.4596 17.9249C21.1372 17.5047 20.8131 17.0845 20.4799 16.6679C20.4437 16.6321 20.4212 16.5847 20.4164 16.534C20.4116 16.4833 20.4247 16.4325 20.4535 16.3905C20.6207 16.0734 20.758 15.7414 20.8635 15.3988C20.9091 15.25 20.9938 15.2085 21.1354 15.1929C21.6489 15.1369 22.1611 15.0741 22.6722 15.0044C23.4952 14.8916 23.9929 14.3201 23.9929 13.4893C24.0013 12.7959 24.0013 12.0996 23.9953 11.4068ZM23.0408 13.4731C23.0408 13.8362 22.8889 14.0133 22.5317 14.0608C21.8942 14.1448 21.2561 14.2252 20.6174 14.3009C20.343 14.3321 20.1635 14.4504 20.0825 14.7277C19.9234 15.2803 19.7018 15.813 19.4222 16.3155C19.2925 16.5472 19.3273 16.7519 19.4894 16.9566C19.8892 17.4609 20.2818 17.9705 20.6744 18.4796C20.9229 18.8019 20.9091 18.9922 20.6216 19.281C20.1669 19.7364 19.7117 20.1915 19.2559 20.6461C18.9881 20.9126 18.7888 20.9252 18.4893 20.6941C17.9856 20.3057 17.4802 19.9203 16.9843 19.5217C16.752 19.335 16.5329 19.2996 16.264 19.4503C15.7751 19.7238 15.2556 19.9388 14.7164 20.0908C14.4499 20.167 14.325 20.3369 14.2962 20.6035C14.2223 21.235 14.1413 21.8641 14.0621 22.4956C14.0116 22.899 13.8472 23.0467 13.4443 23.0473C12.8084 23.0473 12.1723 23.0473 11.536 23.0473C11.1572 23.0473 10.9849 22.8996 10.9357 22.5262C10.8528 21.8965 10.7712 21.2656 10.701 20.6341C10.6697 20.3501 10.5479 20.1682 10.2621 20.0848C9.71668 19.9278 9.19085 19.7093 8.69475 19.4335C8.46484 19.305 8.25713 19.326 8.05123 19.4881C7.55178 19.8819 7.05032 20.2727 6.54687 20.6605C6.19329 20.9342 6.015 20.9216 5.69504 20.6005C5.24402 20.1514 4.79399 19.7016 4.34496 19.251C4.08923 18.994 4.07483 18.7929 4.29874 18.5018C4.69134 17.9921 5.08273 17.4813 5.48434 16.9794C5.66443 16.7543 5.69924 16.54 5.55337 16.2813C5.28027 15.7919 5.06531 15.2723 4.91285 14.7331C4.83361 14.4576 4.66012 14.3309 4.38398 14.2991C3.75246 14.2264 3.12334 14.1454 2.49182 14.065C2.10102 14.0151 1.95155 13.8489 1.95155 13.4593C1.95155 12.8157 1.95155 12.172 1.95155 11.5281C1.95155 11.1643 2.10103 10.9878 2.46241 10.9428C3.09212 10.8587 3.72304 10.7771 4.35396 10.7075C4.64751 10.6757 4.8342 10.552 4.91705 10.2554C5.06964 9.71635 5.28567 9.19726 5.56058 8.70906C5.69564 8.46894 5.67103 8.26004 5.50055 8.04873C5.10975 7.55648 4.72675 7.05823 4.34136 6.56238C4.06282 6.2022 4.07182 6.02631 4.38638 5.70995C4.8306 5.26453 5.27503 4.8197 5.71965 4.37548C6.0066 4.08913 6.19449 4.07533 6.51986 4.32745C7.02351 4.71585 7.52776 5.10244 8.02481 5.49924C8.24392 5.67393 8.45463 5.70575 8.70436 5.56528C9.20041 5.28972 9.72654 5.07218 10.2724 4.91695C10.5383 4.84011 10.6631 4.66843 10.6926 4.40189C10.7664 3.77097 10.848 3.14126 10.9267 2.50974C10.9771 2.10633 11.1404 1.95986 11.545 1.95926C12.1813 1.95926 12.8176 1.95926 13.454 1.95926C13.8321 1.95926 14.005 2.10874 14.0543 2.48092C14.1359 3.11124 14.2181 3.74156 14.2884 4.37308C14.3208 4.66843 14.4535 4.84431 14.7488 4.92896C15.2877 5.0821 15.8066 5.29852 16.2946 5.57368C16.5245 5.70395 16.7316 5.68174 16.9375 5.51965C17.449 5.11945 17.9626 4.71925 18.4785 4.31905C18.79 4.07893 18.9827 4.09154 19.2589 4.36948C19.7259 4.83411 20.19 5.30115 20.657 5.76578C20.7614 5.86963 20.8371 5.98369 20.8413 6.13617C20.8333 6.27149 20.7798 6.40013 20.6894 6.50115C20.289 7.01441 19.8952 7.53187 19.4888 8.04093C19.3123 8.26244 19.2925 8.47374 19.4288 8.72107C19.7054 9.20928 19.9247 9.72777 20.0825 10.2662C20.1617 10.5418 20.334 10.6697 20.6102 10.7015C21.2505 10.7751 21.8886 10.8551 22.5245 10.9416C22.8985 10.9908 23.042 11.1607 23.0426 11.5419C23.0442 12.1854 23.0436 12.8291 23.0408 13.4731Z" fill="white"/>
<path d="M17.2887 12.3566C17.1687 9.6829 14.9476 7.59264 12.3483 7.7103C9.67512 7.83036 7.59868 10.0515 7.70614 12.6562C7.81599 15.3257 10.0227 17.3776 12.6364 17.2863C15.315 17.1927 17.4022 14.9578 17.2887 12.3566ZM12.4863 16.33C11.7284 16.3283 10.9881 16.1016 10.3591 15.6788C9.73011 15.256 9.24072 14.656 8.95291 13.9549C8.66511 13.2537 8.59184 12.483 8.74237 11.7402C8.8929 10.9974 9.26046 10.3159 9.79852 9.78216C10.3366 9.24839 11.0209 8.88629 11.7649 8.74171C12.5089 8.59714 13.2791 8.67658 13.9779 8.96999C14.6767 9.2634 15.2727 9.75758 15.6905 10.39C16.1082 11.0223 16.3289 11.7644 16.3247 12.5223C16.3204 13.5358 15.9139 14.5061 15.1945 15.22C14.475 15.9339 13.5016 16.333 12.4881 16.3294L12.4863 16.33Z" fill="white"/>
</g>
<defs>
<clipPath id="clip0_1849_7228">
<rect width="23" height="23" fill="white" transform="translate(1 1)"/>
</clipPath>
</defs>
</svg>
