<svg width="14" height="17" viewBox="0 0 14 17" fill="none" xmlns="http://www.w3.org/2000/svg">
<path d="M13.9652 13.8058C13.7873 12.6993 13.1883 11.9279 12.1768 11.5789C11.1714 11.2315 10.2698 11.484 9.50358 12.2547C9.43244 12.3263 9.38994 12.3299 9.31061 12.278C7.93935 11.3773 6.56746 10.4797 5.19495 9.58525C5.1068 9.52801 5.09106 9.48076 5.1238 9.3796C5.31206 8.81106 5.31206 8.19179 5.1238 7.62325C5.09232 7.52342 5.10208 7.47483 5.1918 7.4166C6.56138 6.52544 7.92907 5.63063 9.29487 4.73216C9.38396 4.67359 9.42897 4.66893 9.51239 4.75345C10.1662 5.41899 10.945 5.67988 11.8419 5.51516C13.1115 5.28222 14.0659 4.02103 13.9926 2.68263C13.9126 1.22544 12.8647 0.0870382 11.5299 0.00484433C9.67263 -0.107964 8.29098 1.76852 8.86202 3.63934C8.90106 3.76712 8.87808 3.81837 8.77608 3.88459C7.41993 4.76754 6.06631 5.65403 4.7152 6.54408C4.61194 6.61063 4.55937 6.60198 4.46965 6.5148C3.66314 5.73046 2.72883 5.49386 1.70133 5.90816C0.673829 6.32246 0.107193 7.15105 0.00992106 8.30409C-0.0873513 9.45714 0.538781 10.5403 1.53134 11.0251C2.01588 11.2631 2.55776 11.3384 3.08404 11.2411C3.61031 11.1437 4.09575 10.8782 4.47501 10.4804C4.55654 10.3959 4.60628 10.3842 4.70733 10.4508C6.06347 11.3446 7.42193 12.2342 8.78269 13.1196C8.87713 13.1805 8.90295 13.2301 8.86549 13.3525C8.44492 14.7119 9.05436 16.1581 10.2855 16.7564C10.5229 16.8715 10.7795 16.9118 11.0234 17H11.653C11.6603 16.9744 11.6795 16.9724 11.7009 16.97C13.1433 16.795 14.2089 15.3222 13.9652 13.8058ZM11.3584 1.01713C11.8 1.015 12.2245 1.1981 12.5387 1.52628C12.8529 1.85446 13.0311 2.30093 13.0343 2.76782C13.0358 3.00033 12.9939 3.23085 12.911 3.44622C12.8281 3.66158 12.7058 3.85756 12.5512 4.02293C12.3966 4.18831 12.2127 4.31985 12.0099 4.41003C11.8072 4.50021 11.5896 4.54725 11.3697 4.54847C11.1497 4.54913 10.9318 4.50384 10.7284 4.41521C10.525 4.32659 10.3402 4.19637 10.1845 4.03203C10.0289 3.86769 9.90551 3.67246 9.82144 3.45757C9.73737 3.24268 9.69429 3.01235 9.69466 2.7798C9.69433 2.31289 9.86938 1.86495 10.1814 1.53442C10.4933 1.20389 10.9167 1.01783 11.3584 1.01713ZM2.64761 10.2628C2.42761 10.2654 2.2093 10.2219 2.00529 10.1349C1.80127 10.0478 1.61559 9.91893 1.45897 9.75559C1.30235 9.59226 1.17789 9.39774 1.09279 9.18328C1.00768 8.96881 0.963612 8.73865 0.963127 8.50608C0.960447 8.03923 1.13328 7.59037 1.44361 7.2582C1.75395 6.92603 2.17638 6.73775 2.61802 6.73476C2.83799 6.73238 3.05623 6.77602 3.26019 6.86315C3.46415 6.95029 3.64979 7.0792 3.80643 7.24247C3.96308 7.40573 4.08763 7.60014 4.17293 7.81449C4.25823 8.02884 4.30258 8.2589 4.30344 8.49144C4.30537 8.95822 4.13217 9.40678 3.82179 9.7388C3.51141 10.0708 3.08917 10.2592 2.64761 10.2628ZM11.3631 15.9804C10.9216 15.9804 10.4981 15.7954 10.1853 15.4659C9.8726 15.1365 9.69616 14.6894 9.69466 14.2227C9.69346 13.9901 9.73579 13.7596 9.81921 13.5444C9.90264 13.3291 10.0255 13.1335 10.1808 12.9687C10.336 12.8038 10.5206 12.6731 10.7238 12.584C10.927 12.4949 11.1449 12.4491 11.365 12.4494C11.5848 12.45 11.8024 12.4964 12.0052 12.586C12.2081 12.6755 12.3923 12.8065 12.5472 12.9713C12.7022 13.1362 12.8249 13.3317 12.9083 13.5467C12.9917 13.7617 13.0342 13.992 13.0334 14.2244C13.031 14.691 12.8539 15.1376 12.541 15.4667C12.228 15.7957 11.8045 15.9804 11.3631 15.9804Z" fill="white"/>
</svg>
