<svg width="24" height="24" viewBox="0 0 24 24" fill="none" xmlns="http://www.w3.org/2000/svg">
<path d="M23.9999 13.14C24.0149 12.3266 23.5219 11.7484 22.9038 11.5425C22.6804 11.468 22.626 11.3448 22.6285 11.1295C22.6372 10.3104 22.6347 9.4913 22.6285 8.6722C22.63 8.1929 22.4953 7.72304 22.2399 7.31745C22.0479 6.99868 21.7903 6.72434 21.4843 6.51259C21.1783 6.30083 20.8309 6.15648 20.4649 6.0891C20.1483 6.02653 20.1483 6.02653 20.1483 5.69613C20.1483 5.29064 20.1483 4.88265 20.1483 4.47905C20.1483 3.40213 19.42 2.67689 18.3401 2.67626C16.9904 2.67626 15.6408 2.67626 14.2914 2.67626C13.9899 2.67626 13.9786 2.66187 13.8735 2.37716C13.7027 1.9166 13.5663 1.44228 13.3623 0.994872C13.0758 0.364117 12.5884 0.0218311 11.8814 0.00118138C11.4966 -0.0100821 11.1443 0.0969234 10.7908 0.226454C8.83561 0.942937 6.87727 1.65128 4.92143 2.36651C4.2845 2.59929 3.64069 2.8158 3.01126 3.07048C2.11281 3.43467 1.70987 4.34639 2.0346 5.26061C2.09716 5.43644 2.15973 5.61353 2.2223 5.78937C2.30801 6.02152 2.29487 6.05156 2.04336 6.09911C1.66535 6.1691 1.31025 6.33066 1.00913 6.56968C0.451656 7.0077 0.0387153 7.54084 0.0224479 8.29424C0.0111859 8.37872 0.0481003 8.4682 -0.00195312 8.54892V21.7998C0.0512287 22.0958 0.0925226 22.3918 0.248314 22.6596C0.690036 23.4105 1.31195 23.8973 2.19727 24.0006H2.4782C2.55891 23.9555 2.6465 23.9774 2.72846 23.9774C8.41245 23.9774 14.0966 23.9774 19.781 23.9774C19.8649 23.9774 19.9525 23.9555 20.0313 24.0006H20.2653C20.4749 23.9474 20.6958 23.9718 20.9041 23.8929C21.4079 23.7033 21.8422 23.365 22.1493 22.9229C22.4565 22.4808 22.6221 21.9558 22.6241 21.4175C22.6272 20.5589 22.6285 19.701 22.6241 18.8431C22.6241 18.6554 22.6723 18.5509 22.87 18.4877C23.2023 18.3803 23.4912 18.1688 23.694 17.8845C23.8968 17.6002 24.0028 17.2581 23.9962 16.9089C23.9749 15.6524 23.9762 14.3961 23.9999 13.14ZM18.3526 4.14302C18.6154 4.14302 18.6792 4.20997 18.6799 4.4778C18.6799 4.95274 18.6699 5.42894 18.6855 5.90388C18.6924 6.0916 18.6229 6.11413 18.4621 6.11288C17.4023 6.106 16.3424 6.10913 15.2825 6.10913C14.2226 6.10913 13.1627 6.10474 12.1028 6.11413C11.9258 6.11413 11.8826 6.0697 11.8876 5.89637C11.9008 5.42894 11.8914 4.96087 11.892 4.49344C11.892 4.2081 11.9546 4.14302 12.2274 4.14302H18.3526ZM3.63818 4.39332C6.30436 3.42132 8.97054 2.45058 11.6367 1.48108C11.887 1.39097 11.9721 1.43164 12.0641 1.67819C12.1642 1.94789 12.2518 2.22322 12.36 2.49166C12.4401 2.6844 12.4276 2.74697 12.1892 2.74196C11.3983 2.73195 10.7821 3.17999 10.5625 3.89397C10.5092 4.07362 10.4841 4.26043 10.488 4.44776C10.4911 4.93146 10.4792 5.41579 10.4943 5.89887C10.4999 6.08284 10.4398 6.11225 10.2728 6.111C9.24292 6.10287 8.21307 6.10662 7.18322 6.10662C6.15337 6.10662 5.12415 6.10662 4.0943 6.11038C3.95602 6.11038 3.88908 6.07158 3.84403 5.93829C3.7189 5.56285 3.57311 5.19303 3.43922 4.82008C3.3485 4.57666 3.38979 4.48593 3.63818 4.39582V4.39332ZM21.1613 21.3637C21.1613 22.0845 20.6607 22.5901 19.9437 22.5901C14.1709 22.5901 8.39806 22.5901 2.62523 22.5901C1.90633 22.5901 1.4058 22.0895 1.4058 21.3662C1.4058 17.1603 1.4058 12.9548 1.4058 8.74979C1.4058 7.99889 1.89758 7.51518 2.65714 7.51456C5.53521 7.51456 8.41328 7.51456 11.2914 7.51456C14.1388 7.51456 16.9849 7.52895 19.8336 7.50517C20.6551 7.49892 21.1982 8.08086 21.1682 8.8399C21.135 9.65775 21.155 10.4781 21.165 11.2972C21.165 11.4668 21.1168 11.5 20.9567 11.4987C20.1692 11.4899 19.3815 11.4889 18.5935 11.4956C16.5951 11.5106 15.046 13.095 15.0754 15.0886C15.1023 16.9371 16.6446 18.4833 18.5053 18.5146C19.3243 18.5284 20.1439 18.5227 20.9629 18.5146C21.13 18.5146 21.1663 18.5584 21.1644 18.7199C21.1575 19.6003 21.1638 20.482 21.1613 21.3637ZM22.5671 16.8163C22.5671 17.0397 22.4495 17.1154 22.2424 17.1142C21.6111 17.1104 20.9798 17.1142 20.2165 17.1142C19.6403 17.0835 18.9283 17.1768 18.2238 17.0723C17.1695 16.9152 16.4093 15.9259 16.485 14.8421C16.5595 13.7927 17.4517 12.9198 18.5009 12.9066C19.7554 12.8904 21.0111 12.9023 22.2662 12.8985C22.4695 12.8985 22.5678 12.9855 22.5671 13.192C22.5655 14.4001 22.5655 15.6082 22.5671 16.8163Z" fill="white"/>
</svg>
